<?xml version="1.0" encoding="UTF-8"?>
<svg version="1.1" xmlns="http://www.w3.org/2000/svg" width="500" height="500">
<path d="M0 0 C3.85197981 1.75381201 6.60215101 3.40322651 9 7 C8.73703155 11.77287746 7.17593714 14.7317308 4.5 18.625 C1.40724691 22.9670601 1.40724691 22.9670601 0 28 C0.45375 28.86625 0.9075 29.7325 1.375 30.625 C4.82011007 37.78022861 4.3897486 44.25103111 1.984375 51.67578125 C0.87458795 54.29611178 -0.49504025 56.58481159 -2 59 C-3.23196983 61.10252667 -4.4610675 63.20673853 -5.6875 65.3125 C-6.31011719 66.38113281 -6.93273437 67.44976562 -7.57421875 68.55078125 C-8.04472656 69.35902344 -8.51523437 70.16726562 -9 71 C-5.86081277 74.37712073 -2.37436629 76.94713869 1.4375 79.5 C9.6188197 85.01697738 9.6188197 85.01697738 13 88 C13 88.66 13 89.32 13 90 C13.598125 90.268125 14.19625 90.53625 14.8125 90.8125 C16.99847854 91.99917406 18.41332594 93.09599113 20 95 C20 95.66 20 96.32 20 97 C20.99 97.33 21.98 97.66 23 98 C24.84998007 100.25650436 26.56333854 102.50152148 28.25 104.875 C28.73799072 105.55320801 29.22598145 106.23141602 29.72875977 106.93017578 C38.94409831 119.83317168 44.95061913 131.97243324 49.43505859 147.10131836 C49.96689668 148.88874482 50.52176574 150.66927227 51.078125 152.44921875 C52.13670335 156.5265396 52.69036601 160.50481858 53.125 164.6875 C53.2084668 165.48494629 53.29193359 166.28239258 53.37792969 167.10400391 C55.27422967 186.24889378 53.27421695 204.83372878 47 223 C46.71511719 223.87269531 46.43023437 224.74539063 46.13671875 225.64453125 C42.92552749 234.5780349 37.69907856 242.78601068 33 251 C32.34 251 31.68 251 31 251 C30.73960937 251.73089844 30.47921875 252.46179688 30.2109375 253.21484375 C28.97181077 256.06483523 27.55609692 258.13808792 25.625 260.5625 C25.03976562 261.30628906 24.45453125 262.05007813 23.8515625 262.81640625 C21.99186413 265.00959483 20.1302341 267.06700979 18 269 C17.34 269 16.68 269 16 269 C15.67 269.99 15.34 270.98 15 272 C1.58308664 284.46824271 -13.88854491 292.69859667 -31.12329102 298.37548828 C-32.74219752 298.91421117 -34.34904128 299.48893824 -35.953125 300.0703125 C-60.17470077 307.46099844 -89.48442822 306.17423653 -113 297 C-113.81082031 296.71511719 -114.62164062 296.43023437 -115.45703125 296.13671875 C-134.15226419 289.28079326 -152.78831667 275.65600427 -165 260 C-165 259.34 -165 258.68 -165 258 C-165.99330322 258.02618408 -166.98660645 258.05236816 -168.01000977 258.0793457 C-171.72038962 258.17033301 -175.43067236 258.22742303 -179.1418457 258.2746582 C-180.74325177 258.29969279 -182.34454482 258.33373162 -183.94555664 258.37719727 C-186.25695768 258.43834544 -188.56683966 258.46631814 -190.87890625 258.48828125 C-191.58648575 258.51408768 -192.29406525 258.5398941 -193.02308655 258.56648254 C-198.58014714 258.56956799 -202.1069782 256.79548399 -206 253 C-208.37987784 248.43856748 -208.17011745 244.95049689 -207 240 C-204.97508642 235.41730084 -202.38354402 233.36124384 -198 231 C-194.70944851 230.43412489 -191.47499841 230.46301973 -188.14257812 230.49829102 C-186.67805458 230.49018654 -186.67805458 230.49018654 -185.1839447 230.48191833 C-181.96606865 230.46944123 -178.74908905 230.48591587 -175.53125 230.50390625 C-173.28975376 230.50375124 -171.04825724 230.50226191 -168.8067627 230.49949646 C-164.11275358 230.49811292 -159.41905018 230.51066345 -154.72509766 230.53344727 C-148.71264485 230.56183141 -142.70069992 230.5590938 -136.68820953 230.54635715 C-132.06076735 230.53939737 -127.43344225 230.54719276 -122.80601501 230.55961418 C-120.58927357 230.56412574 -118.37251955 230.56446807 -116.15577698 230.56054878 C-113.05606382 230.5576337 -109.95704698 230.57415843 -106.85742188 230.59594727 C-105.48728188 230.58919479 -105.48728188 230.58919479 -104.08946228 230.58230591 C-98.97342874 230.64196218 -95.44249189 231.17611908 -91 234 C-88.08233421 237.15170315 -87.07176341 240.4053889 -86.5625 244.625 C-87.20881915 249.61089059 -88.8157449 251.96016625 -92.5625 255.25 C-96.32192228 257.94907241 -98.27395577 258.12002934 -102.8828125 258.09765625 C-104.04941406 258.09443359 -105.21601563 258.09121094 -106.41796875 258.08789062 C-107.64128906 258.07951172 -108.86460937 258.07113281 -110.125 258.0625 C-111.35605469 258.05798828 -112.58710938 258.05347656 -113.85546875 258.04882812 C-116.90369392 258.0370133 -119.95182314 258.02054028 -123 258 C-123 258.66 -123 259.32 -123 260 C-122.28457031 260.27199219 -121.56914062 260.54398437 -120.83203125 260.82421875 C-118.00471791 261.99804126 -115.3845558 263.36669498 -112.6875 264.8125 C-89.95762145 276.26141666 -65.35719896 277.79547781 -41 271 C-32.41128116 268.12448973 -24.41135481 263.99415066 -16.8203125 259.06640625 C-15 258 -15 258 -13 258 C-12.67 257.01 -12.34 256.02 -12 255 C-10.50803188 253.71096241 -8.95636119 252.49016022 -7.375 251.3125 C10.23873385 237.53219614 21.28364806 214.97270486 24 193 C25.83007846 164.81765707 20.10529843 141.08653728 1.734375 119.2265625 C0 117 0 117 -0.984375 114.8359375 C-2.30162257 112.4547592 -3.55144946 112.13775405 -6 111 C-8.77271467 108.79271808 -11.45481332 106.49426523 -14.1484375 104.19140625 C-17.91487835 101.29692225 -21.16610328 99 -26 99 C-26.24492187 99.52464844 -26.48984375 100.04929687 -26.7421875 100.58984375 C-30.97504387 109.36207368 -36.01898682 117.64064564 -41 126 C-42.68478723 128.83387265 -44.36791969 131.66870758 -46.04882812 134.50488281 C-47.1496895 136.36219141 -48.2524307 138.21838762 -49.35742188 140.07324219 C-52.57850921 145.50405173 -55.66692694 150.99105025 -58.66992188 156.54541016 C-60.69720463 160.2866548 -62.80006156 163.98574962 -64.8984375 167.6875 C-66.21502598 170.02449145 -66.21502598 170.02449145 -66 173 C-63.60414714 175.64587234 -63.60414714 175.64587234 -61 178 C-60 179 -60 179 -59.5625 181.5 C-60.28625882 187.29007058 -63.92296402 191.92296402 -68 196 C-71.16198753 197.11631908 -72.66114591 197.12038849 -75.84765625 195.98828125 C-76.90855469 195.43527344 -77.96945313 194.88226563 -79.0625 194.3125 C-79.95074463 193.85133789 -79.95074463 193.85133789 -80.85693359 193.38085938 C-89.01309916 189.05910778 -96.85916468 184.17086667 -104.73828125 179.37011719 C-107.68136696 177.58723754 -110.64830011 175.85117906 -113.625 174.125 C-114.98431641 173.33416016 -114.98431641 173.33416016 -116.37109375 172.52734375 C-118.21641342 171.45524867 -120.06286805 170.38510587 -121.91015625 169.31640625 C-122.82667969 168.77886719 -123.74320312 168.24132812 -124.6875 167.6875 C-125.49574219 167.21699219 -126.30398437 166.74648438 -127.13671875 166.26171875 C-129 165 -129 165 -130 163 C-130.62723335 156.9367443 -129.74448567 153.72592134 -126.38671875 148.6640625 C-125 147 -125 147 -122 145 C-117.35948657 144.65625826 -114.22836343 145.16916223 -110 147 C-103.30365002 135.78158914 -103.30365002 135.78158914 -96.9375 124.375 C-94.23045667 119.32900988 -91.28583961 114.4458974 -88.31835938 109.55078125 C-86.09647719 105.87137433 -83.96573679 102.1662001 -81.9375 98.375 C-79.21304053 93.28833607 -76.20572542 88.40906524 -73.125 83.53125 C-70.80656186 79.76442278 -68.72457636 75.87327698 -66.61962891 71.984375 C-48.94764628 39.42146942 -48.94764628 39.42146942 -40 26 C-39.34 26 -38.68 26 -38 26 C-37.814375 25.4225 -37.62875 24.845 -37.4375 24.25 C-34.93660174 20.33555055 -30.82819074 18.54845722 -26.5 17.25 C-23.3221777 16.93221777 -20.19108883 16.93742963 -17 17 C-16.7421875 16.12988281 -16.484375 15.25976562 -16.21875 14.36328125 C-14.98150742 10.94896759 -13.46616948 8.23256332 -11.5 5.1875 C-10.8915625 4.23230469 -10.283125 3.27710937 -9.65625 2.29296875 C-6.72506621 -1.76506164 -4.62607207 -1.13469692 0 0 Z " fill="#02ADEE" transform="translate(327,99)"/>
<path d="M0 0 C1.25456245 0.00424484 1.25456245 0.00424484 2.5344696 0.00857544 C5.19370101 0.0197293 7.85258993 0.04482487 10.51171875 0.0703125 C12.31965658 0.08034851 14.12759971 0.08947327 15.93554688 0.09765625 C20.35690187 0.11965291 24.77800233 0.15414956 29.19921875 0.1953125 C30.12388776 30.25197378 30.53479171 60.13781674 29.19921875 90.1953125 C28.15765625 90.63359375 27.11609375 91.071875 26.04296875 91.5234375 C3.50452253 101.35882954 -14.70461949 117.03533931 -25.80078125 139.1953125 C-26.17074219 139.92363281 -26.54070312 140.65195313 -26.921875 141.40234375 C-37.08883642 162.72527063 -38.64987909 189.24143946 -31.67578125 211.7578125 C-31.32257813 212.74910156 -30.969375 213.74039063 -30.60546875 214.76171875 C-29.80078125 217.1953125 -29.80078125 217.1953125 -29.80078125 220.1953125 C-33.92572276 220.25315958 -38.05056069 220.28885657 -42.17578125 220.3203125 C-43.35140625 220.33707031 -44.52703125 220.35382813 -45.73828125 220.37109375 C-47.42050781 220.38076172 -47.42050781 220.38076172 -49.13671875 220.390625 C-50.1736084 220.40109863 -51.21049805 220.41157227 -52.27880859 220.42236328 C-54.80078125 220.1953125 -54.80078125 220.1953125 -56.80078125 218.1953125 C-65.04190169 196.11873438 -63.54188477 165.11723408 -55.80078125 143.1953125 C-55.53845703 142.43782715 -55.27613281 141.6803418 -55.00585938 140.89990234 C-48.49700961 122.62595542 -37.33429014 105.18270342 -22.80078125 92.1953125 C-22.14078125 92.1953125 -21.48078125 92.1953125 -20.80078125 92.1953125 C-20.80078125 91.5353125 -20.80078125 90.8753125 -20.80078125 90.1953125 C-18.83596147 88.50305156 -16.87325941 86.93327015 -14.80078125 85.3828125 C-13.90927368 84.70786743 -13.90927368 84.70786743 -12.99975586 84.01928711 C-6.84345477 79.40227044 -0.69493686 75.6423903 6.19921875 72.1953125 C6.52921875 55.6953125 6.85921875 39.1953125 7.19921875 22.1953125 C1.25921875 22.1953125 -4.68078125 22.1953125 -10.80078125 22.1953125 C-16.80078125 18.1953125 -16.80078125 18.1953125 -17.80078125 16.1953125 C-17.96875 14.13671875 -17.96875 14.13671875 -17.98828125 11.7578125 C-18.00246094 10.97535156 -18.01664063 10.19289063 -18.03125 9.38671875 C-17.80078125 7.1953125 -17.80078125 7.1953125 -15.80078125 4.1953125 C-15.14078125 4.1953125 -14.48078125 4.1953125 -13.80078125 4.1953125 C-13.80078125 3.5353125 -13.80078125 2.8753125 -13.80078125 2.1953125 C-9.17304433 -0.14897492 -5.05769094 -0.06482314 0 0 Z " fill="#2E318F" transform="translate(195.80078125,95.8046875)"/>
<path d="M0 0 C2.5 -0.3125 2.5 -0.3125 5 0 C7 2 7 2 7.265625 4.73046875 C7.14686831 31.00538737 0.12811189 54.5421314 -18 74 C-28.34279012 84.07365955 -39.81268191 90.86598846 -53.125 96.375 C-53.94814697 96.72135498 -54.77129395 97.06770996 -55.61938477 97.42456055 C-61.40680744 99.72419488 -66.78666266 100.69172351 -73 101 C-73.6875 98.1875 -73.6875 98.1875 -74 95 C-72.03462331 92.43943038 -70.17744248 91.51193612 -67.125 90.625 C-54.93359984 86.77819898 -43.91566417 82.13980212 -33.75390625 74.2578125 C-32 73 -32 73 -30 73 C-30 72.34 -30 71.68 -30 71 C-25.52941176 67 -25.52941176 67 -23 67 C-22.74605469 66.43796875 -22.49210937 65.8759375 -22.23046875 65.296875 C-20.83537754 62.69270474 -19.14441855 60.56779086 -17.3125 58.25 C-6.63083501 43.66467199 -2.80561747 27.16718847 -2.37744141 9.30737305 C-2.20153729 3.30230594 -2.20153729 3.30230594 0 0 Z " fill="#43438A" transform="translate(337,265)"/>
<path d="M0 0 C0.84390793 -0.00571014 1.68781586 -0.01142029 2.55729675 -0.01730347 C3.94900841 -0.01898026 3.94900841 -0.01898026 5.36883545 -0.02069092 C6.34460037 -0.02565582 7.3203653 -0.03062073 8.32569885 -0.03573608 C11.56501971 -0.05038236 14.80429156 -0.0571644 18.04364014 -0.06268311 C20.29085288 -0.06843326 22.53806561 -0.074191 24.78527832 -0.07995605 C29.50307443 -0.09047356 34.22085347 -0.09631108 38.93865967 -0.09979248 C44.98255756 -0.10527374 51.02622976 -0.1292909 57.07005692 -0.15776443 C61.71462664 -0.1763948 66.3591421 -0.18159667 71.00374603 -0.18312836 C73.23166892 -0.18615534 75.45959085 -0.19418536 77.68747711 -0.20731354 C80.80669767 -0.22437934 83.92536831 -0.2224921 87.0446167 -0.21600342 C87.96432755 -0.2252182 88.88403839 -0.23443298 89.83161926 -0.243927 C94.97113439 -0.21045744 98.50453136 0.29488315 102.96551514 3.14044189 C105.88318092 6.29214504 106.89375173 9.54583079 107.40301514 13.76544189 C106.75669599 18.75133248 105.14977024 21.10060815 101.40301514 24.39044189 C97.64359285 27.0895143 95.69155937 27.26047124 91.08270264 27.23809814 C89.91610107 27.23487549 88.74949951 27.23165283 87.54754639 27.22833252 C86.32422607 27.21995361 85.10090576 27.21157471 83.84051514 27.20294189 C82.60946045 27.19843018 81.37840576 27.19391846 80.11004639 27.18927002 C77.06182122 27.17745519 74.013692 27.16098217 70.96551514 27.14044189 C70.96551514 27.80044189 70.96551514 28.46044189 70.96551514 29.14044189 C71.66676514 29.40856689 72.36801514 29.67669189 73.09051514 29.95294189 C77.186232 31.64465103 81.08270042 33.69002622 85.02801514 35.70294189 C87.63961778 36.98096021 90.25118732 38.10261067 92.96551514 39.14044189 C92.96551514 39.47044189 92.96551514 39.80044189 92.96551514 40.14044189 C87.67680956 39.69384009 82.97435463 39.00419613 77.96551514 37.14044189 C77.20239014 36.99606689 76.43926514 36.85169189 75.65301514 36.70294189 C75.09614014 36.51731689 74.53926514 36.33169189 73.96551514 36.14044189 C73.63551514 35.15044189 73.30551514 34.16044189 72.96551514 33.14044189 C71.48051514 32.64544189 71.48051514 32.64544189 69.96551514 32.14044189 C69.47051514 31.15044189 69.47051514 31.15044189 68.96551514 30.14044189 C66.94088259 29.48830898 66.94088259 29.48830898 64.96551514 29.14044189 C64.96551514 27.82044189 64.96551514 26.50044189 64.96551514 25.14044189 C66.32700684 25.11071289 66.32700684 25.11071289 67.71600342 25.0803833 C71.1044463 25.00198522 74.49247016 24.9152827 77.8805542 24.82305908 C79.34303703 24.78492983 80.80560851 24.75004975 82.26824951 24.71856689 C84.37859646 24.67256478 86.48834148 24.61463248 88.59832764 24.55450439 C89.86563721 24.5230835 91.13294678 24.4916626 92.43865967 24.45928955 C95.93598496 24.14311159 98.73115315 23.49263351 101.96551514 22.14044189 C103.45437531 19.12266254 103.0675552 15.71180754 103.02801514 12.39044189 C103.0189917 11.40559814 103.00996826 10.42075439 103.00067139 9.40606689 C102.98906982 8.65841064 102.97746826 7.91075439 102.96551514 7.14044189 C97.21065871 3.21661532 93.04538623 2.56418887 86.16229248 2.63873291 C85.20369827 2.63332993 84.24510406 2.62792694 83.25746155 2.62236023 C80.10513959 2.60990501 76.95373649 2.62634057 73.80145264 2.64434814 C71.60383049 2.64419311 69.40620806 2.64270336 67.20858765 2.63993835 C62.61051294 2.63855588 58.01275073 2.6510894 53.41473389 2.67388916 C47.5221556 2.70230652 41.63009506 2.69952522 35.73747826 2.68679905 C31.20272398 2.67984435 26.66808937 2.68762827 22.13335037 2.70005608 C19.9604399 2.70457023 17.78751658 2.7049077 15.61460495 2.70099068 C12.57945148 2.69807972 9.54501196 2.71457927 6.50994873 2.73638916 C5.1648246 2.72963669 5.1648246 2.72963669 3.79252625 2.7227478 C-1.1338933 2.78155332 -3.85741714 3.31924315 -8.03448486 6.14044189 C-9.02448486 5.81044189 -10.01448486 5.48044189 -11.03448486 5.14044189 C-4.7568916 0.01924739 -4.7568916 0.01924739 0 0 Z " fill="#4FB5D6" transform="translate(133.03448486328125,329.85955810546875)"/>
<path d="M0 0 C2.64 0.33 5.28 0.66 8 1 C8 1.99 8 2.98 8 4 C8.9075 4.268125 9.815 4.53625 10.75 4.8125 C13.72991834 5.90131632 15.68590359 6.86391101 18 9 C18 9.66 18 10.32 18 11 C18.66 11 19.32 11 20 11 C20 11.66 20 12.32 20 13 C21.32 12.67 22.64 12.34 24 12 C28 16.75 28 16.75 28 19 C28.66 19 29.32 19 30 19 C30.495 21.475 30.495 21.475 31 24 C31.66 24 32.32 24 33 24 C33 24.66 33 25.32 33 26 C33.66 26 34.32 26 35 26 C36.17361494 27.66138941 37.26425263 29.38179483 38.3125 31.125 C40.31125324 34.38130215 42.22739028 37.43407691 44.8125 40.25 C48.7411936 45.1889291 49.2497381 50.87286118 50 57 C50.66 57 51.32 57 52 57 C54.03166604 65.88064839 54.39762689 74.61848565 54.375 83.6875 C54.37545319 84.39255676 54.37590637 85.09761353 54.37637329 85.82403564 C54.35702439 96.05975205 54.31424672 106.50577144 50 116 C49.01 116.66 48.02 117.32 47 118 C47.50417667 115.35184876 48.06551591 112.75185424 48.75390625 110.14453125 C54.98113131 84.48355067 51.08917109 59.33269442 38.0625 36.625 C35.29682943 32.21185451 32.0821508 28.21015619 28.734375 24.2265625 C27 22 27 22 26.015625 19.8359375 C24.69837743 17.4547592 23.44855054 17.13775405 21 16 C18.22728533 13.79271808 15.54518668 11.49426523 12.8515625 9.19140625 C9.08512165 6.29692225 5.83389672 4 1 4 C0.68546875 4.66386719 0.3709375 5.32773438 0.046875 6.01171875 C-2.25301049 10.75696442 -4.44142868 15.04603186 -8 19 C-8 17.35 -8 15.7 -8 14 C-7.34 14 -6.68 14 -6 14 C-5.67 10.37 -5.34 6.74 -5 3 C-4.34 3.33 -3.68 3.66 -3 4 C-2.34 3.67 -1.68 3.34 -1 3 C-0.67 2.01 -0.34 1.02 0 0 Z " fill="#3AA8CE" transform="translate(300,194)"/>
<path d="M0 0 C3.43846747 0.08081582 6.87515312 0.19366152 10.3125 0.3125 C11.28896484 0.33505859 12.26542969 0.35761719 13.27148438 0.38085938 C14.20927734 0.41630859 15.14707031 0.45175781 16.11328125 0.48828125 C16.97735596 0.51446533 17.84143066 0.54064941 18.73168945 0.56762695 C21.5270208 1.10045785 22.27807702 1.76007923 24 4 C24.33625793 6.31469727 24.33625793 6.31469727 24.28051758 9.06640625 C24.25982964 10.6131604 24.25982964 10.6131604 24.23872375 12.19116211 C24.20764023 13.30370361 24.1765567 14.41624512 24.14453125 15.5625 C24.12283371 16.70533447 24.10113617 17.84816895 24.07878113 19.02563477 C24.02947797 21.44335679 23.97266077 23.86093543 23.90893555 26.27832031 C23.81289185 29.98487753 23.74345973 33.69123188 23.67773438 37.3984375 C23.62658183 39.74482668 23.57389889 42.09118311 23.51953125 44.4375 C23.48808769 46.10631226 23.48808769 46.10631226 23.45600891 47.80883789 C23.42645615 48.84000732 23.39690338 49.87117676 23.36645508 50.93359375 C23.34408279 51.84165771 23.32171051 52.74972168 23.29866028 53.68530273 C23 56 23 56 21 59 C18.46875 60.16796875 18.46875 60.16796875 15.5 61.1875 C14.5203125 61.53167969 13.540625 61.87585938 12.53125 62.23046875 C10 63 10 63 8 63 C8 63.66 8 64.32 8 65 C6.88625 65.37125 5.7725 65.7425 4.625 66.125 C1.45739169 67.45973818 1.1226695 67.72678156 -0.375 71.0625 C-0.58125 72.031875 -0.7875 73.00125 -1 74 C-1.495 74.99 -1.495 74.99 -2 76 C-3.65449105 76.38929201 -5.32546201 76.708776 -7 77 C-9.33762223 77.65146849 -11.67190457 78.31526605 -14 79 C-12.71937515 77.2925002 -11.38232443 75.62626404 -10 74 C-9.34 74 -8.68 74 -8 74 C-8 73.34 -8 72.68 -8 72 C-6.03518022 70.30773906 -4.07247816 68.73795765 -2 67.1875 C-1.40566162 66.73753662 -0.81132324 66.28757324 -0.19897461 65.82397461 C5.95732648 61.20695794 12.10584439 57.4470778 19 54 C19.33 37.5 19.66 21 20 4 C14.06 4 8.12 4 2 4 C1.34 3.67 0.68 3.34 0 3 C0 2.01 0 1.02 0 0 Z " fill="#696A9C" transform="translate(183,114)"/>
<path d="M0 0 C2.31 0 4.62 0 7 0 C6.34 1.32 5.68 2.64 5 4 C4.34 4 3.68 4 3 4 C2.67 4.99 2.34 5.98 2 7 C-11.41691336 19.46824271 -26.88854491 27.69859667 -44.12329102 33.37548828 C-45.74219752 33.91421117 -47.34904128 34.48893824 -48.953125 35.0703125 C-72.28959335 42.1909272 -103.49646561 42.08779128 -126 32 C-126.66 31.34 -127.32 30.68 -128 30 C-126.741875 29.95875 -125.48375 29.9175 -124.1875 29.875 C-123.47980469 29.85179687 -122.77210938 29.82859375 -122.04296875 29.8046875 C-120 30 -120 30 -117 32 C-101.29640159 36.83187643 -73.42256055 40.80394095 -58.01953125 32.99609375 C-55.45412465 31.73075781 -53.07359017 31.37274253 -50.25 30.9375 C-49.198125 30.77378906 -48.14625 30.61007812 -47.0625 30.44140625 C-43.37911077 29.91050959 -39.69690691 29.42656618 -36 29 C-36 28.34 -36 27.68 -36 27 C-35.27554688 26.67386719 -34.55109375 26.34773438 -33.8046875 26.01171875 C-27.59996645 23.20894168 -27.59996645 23.20894168 -21.5 20.1875 C-19 19 -19 19 -16 19 C-15.505 17.515 -15.505 17.515 -15 16 C-12.4375 14.8125 -12.4375 14.8125 -10 14 C-10 13.34 -10 12.68 -10 12 C-8.35 11.34 -6.7 10.68 -5 10 C-5 9.01 -5 8.02 -5 7 C-4.01 6.67 -3.02 6.34 -2 6 C-1.67 5.34 -1.34 4.68 -1 4 C-0.34 4 0.32 4 1 4 C0.67 2.68 0.34 1.36 0 0 Z " fill="#5BBAD9" transform="translate(340,364)"/>
<path d="M0 0 C2.5 -0.3125 2.5 -0.3125 5 0 C7 2 7 2 7.265625 4.73046875 C7.2078798 17.50659506 5.81712685 29.75974656 2 42 C1.67 42 1.34 42 1 42 C1.33 39.03 1.66 36.06 2 33 C1.34 34.32 0.68 35.64 0 37 C-2 35 -2 35 -3 33 C-3.66 33.66 -4.32 34.32 -5 35 C-4.10303831 27.43989432 -4.10303831 27.43989432 -3.4921875 24.83203125 C-2.62855936 19.86274235 -2.63739164 14.80806509 -2.48242188 9.7734375 C-2.44826172 8.9484375 -2.41410156 8.1234375 -2.37890625 7.2734375 C-2.3538501 6.52497559 -2.32879395 5.77651367 -2.30297852 5.00537109 C-2 3 -2 3 0 0 Z " fill="#57589D" transform="translate(337,265)"/>
<path d="M0 0 C0.33 0 0.66 0 1 0 C0.98839844 0.83144531 0.97679688 1.66289062 0.96484375 2.51953125 C0.95582031 3.60621094 0.94679688 4.69289063 0.9375 5.8125 C0.92589844 6.89144531 0.91429688 7.97039062 0.90234375 9.08203125 C0.86375234 12.06512169 0.86375234 12.06512169 2 15 C3.093125 15.12375 4.18625 15.2475 5.3125 15.375 C9 16 9 16 12 18 C14.47056823 18.17112002 16.82503921 18.23253124 19.29296875 18.1953125 C20.35201164 18.19106766 20.35201164 18.19106766 21.43244934 18.18673706 C23.68430633 18.17555464 25.93576352 18.1504542 28.1875 18.125 C29.71548904 18.11496767 31.24348433 18.10584226 32.77148438 18.09765625 C36.51447663 18.07562172 40.25717056 18.04110567 44 18 C44.433125 19.134375 44.86625 20.26875 45.3125 21.4375 C45.869375 22.613125 46.42625 23.78875 47 25 C47.99 25.33 48.98 25.66 50 26 C50.495 28.475 50.495 28.475 51 31 C51.99 31.33 52.98 31.66 54 32 C54.45375 32.474375 54.9075 32.94875 55.375 33.4375 C56.96974354 35.1913843 56.96974354 35.1913843 59.5625 35.875 C62.76886813 37.35486221 62.72863138 38.82157846 64 42 C66.44288628 43.31068333 66.44288628 43.31068333 69 44 C69.66 44.33 70.32 44.66 71 45 C71 45.66 71 46.32 71 47 C72.98 47.495 72.98 47.495 75 48 C75 48.66 75 49.32 75 50 C70.7770224 49.41752033 67.72784062 46.94334173 64.375 44.5 C63.75689453 44.05293701 63.13878906 43.60587402 62.50195312 43.14526367 C54.50815627 37.27727834 47.09434655 30.8584995 41 23 C41 22.34 41 21.68 41 21 C40.00669678 21.02618408 39.01339355 21.05236816 37.98999023 21.0793457 C34.27961038 21.17033301 30.56932764 21.22742303 26.8581543 21.2746582 C25.25674823 21.29969279 23.65545518 21.33373162 22.05444336 21.37719727 C19.74304232 21.43834544 17.43316034 21.46631814 15.12109375 21.48828125 C14.41351425 21.51408768 13.70593475 21.5398941 12.97691345 21.56648254 C7.41985286 21.56956799 3.8930218 19.79548399 0 16 C-2.39087124 11.41749679 -2.0344583 7.98420816 -1 3 C-0.67 2.01 -0.34 1.02 0 0 Z " fill="#0F9ED1" transform="translate(121,336)"/>
<path d="M0 0 C0.83920486 0.00141495 1.67840973 0.0028299 2.54304504 0.00428772 C5.22274341 0.0098841 7.90235815 0.0224359 10.58203125 0.03515625 C12.39908733 0.04017172 14.21614473 0.04473454 16.03320312 0.04882812 C20.48701138 0.05985234 24.94075714 0.07711447 29.39453125 0.09765625 C30.31920026 30.15431753 30.73010421 60.04016049 29.39453125 90.09765625 C27.74453125 90.09765625 26.09453125 90.09765625 24.39453125 90.09765625 C25.05453125 89.43765625 25.71453125 88.77765625 26.39453125 88.09765625 C26.64159958 85.36069955 26.76557205 82.71808702 26.80517578 79.97607422 C26.83487457 78.71742554 26.83487457 78.71742554 26.86517334 77.43334961 C26.92848511 74.65229685 26.97794907 71.87117568 27.02734375 69.08984375 C27.06847587 67.16454261 27.11046863 65.23925968 27.15328979 63.31399536 C27.26380362 58.24081137 27.36258965 53.16746343 27.45898438 48.09399414 C27.57700293 42.0098523 27.70949836 35.9260108 27.83958435 29.84211731 C28.03569461 20.5941467 28.21334264 11.34598554 28.39453125 2.09765625 C7.60453125 2.59265625 7.60453125 2.59265625 -13.60546875 3.09765625 C-9.72995588 -0.77785662 -5.13038042 -0.03246134 0 0 Z " fill="#5E5C93" transform="translate(195.60546875,95.90234375)"/>
<path d="M0 0 C3.85197981 1.75381201 6.60215101 3.40322651 9 7 C8.73703155 11.77287746 7.17593714 14.7317308 4.5 18.625 C1.40724691 22.9670601 1.40724691 22.9670601 0 28 C0.45375 28.86625 0.9075 29.7325 1.375 30.625 C4.89830382 37.942631 4.3122359 44.48222825 1.88671875 52.06640625 C1 54 1 54 -1 55 C-0.9278125 54.39414063 -0.855625 53.78828125 -0.78125 53.1640625 C0.95754472 41.04537255 0.95754472 41.04537255 -3 30 C-3.41291057 25.87089433 -3.33909307 24.5086396 -1 21 C0.07756197 16.89674398 0.07756197 16.89674398 -1 13 C-0.195625 12.79375 0.60875 12.5875 1.4375 12.375 C2.283125 11.92125 3.12875 11.4675 4 11 C4.89830839 7.94727535 4.89830839 7.94727535 5 5 C1.37 4.67 -2.26 4.34 -6 4 C-6.33 4.66 -6.66 5.32 -7 6 C-7.66 6 -8.32 6 -9 6 C-9 6.99 -9 7.98 -9 9 C-10.32 9.33 -11.64 9.66 -13 10 C-8.51037549 -2.08745059 -8.51037549 -2.08745059 0 0 Z " fill="#40AFD4" transform="translate(327,99)"/>
<path d="M0 0 C2.5 1.375 2.5 1.375 5 3 C5 3.66 5 4.32 5 5 C5.598125 5.268125 6.19625 5.53625 6.8125 5.8125 C8.99847854 6.99917406 10.41332594 8.09599113 12 10 C12 10.66 12 11.32 12 12 C12.99 12.33 13.98 12.66 15 13 C16.84998007 15.25650436 18.56333854 17.50152148 20.25 19.875 C20.98198608 20.89231201 20.98198608 20.89231201 21.72875977 21.93017578 C27.67824975 30.26044433 33.15920764 38.47483494 37 48 C37.433125 48.94875 37.86625 49.8975 38.3125 50.875 C39 53 39 53 38 56 C36.5 54.6875 36.5 54.6875 35 53 C35 52.01 35 51.02 35 50 C34.34 50 33.68 50 33 50 C33 49.34 33 48.68 33 48 C31.68 47.67 30.36 47.34 29 47 C29 44.36 29 41.72 29 39 C28.34 39 27.68 39 27 39 C24 32.5 24 32.5 24 28 C23.34 28 22.68 28 22 28 C21.67 26.68 21.34 25.36 21 24 C20.34 24 19.68 24 19 24 C19 23.01 19 22.02 19 21 C18.34 21 17.68 21 17 21 C17 20.34 17 19.68 17 19 C16.01 19 15.02 19 14 19 C13.67 17.35 13.34 15.7 13 14 C12.01 13.67 11.02 13.34 10 13 C10 12.34 10 11.68 10 11 C9.278125 10.814375 8.55625 10.62875 7.8125 10.4375 C4.01299488 8.49553072 2.05020474 5.69909281 0 2 C0 1.34 0 0.68 0 0 Z " fill="#50B0D2" transform="translate(335,184)"/>
<path d="M0 0 C0.33 0 0.66 0 1 0 C-0.12634583 12.95297708 -7.68653802 23.96406845 -14 35 C-14.66 35 -15.32 35 -16 35 C-16.2578125 35.72574219 -16.515625 36.45148438 -16.78125 37.19921875 C-18.05242499 40.12047667 -19.54016402 42.30872649 -21.5 44.8125 C-22.1084375 45.60269531 -22.716875 46.39289063 -23.34375 47.20703125 C-23.8903125 47.79871094 -24.436875 48.39039063 -25 49 C-25.66 49 -26.32 49 -27 49 C-27.33 47.02 -27.66 45.04 -28 43 C-26.35 42.34 -24.7 41.68 -23 41 C-23 40.34 -23 39.68 -23 39 C-22.34 39 -21.68 39 -21 39 C-21.04125 38.21625 -21.0825 37.4325 -21.125 36.625 C-21 34 -21 34 -19 32 C-18.01 32 -17.02 32 -16 32 C-15.86207031 31.43667969 -15.72414063 30.87335938 -15.58203125 30.29296875 C-14.98784037 27.95209595 -14.37273645 25.62852263 -13.6875 23.3125 C-13.46449219 22.52488281 -13.24148438 21.73726563 -13.01171875 20.92578125 C-12.67785156 20.29027344 -12.34398437 19.65476562 -12 19 C-11.05447266 18.82984375 -11.05447266 18.82984375 -10.08984375 18.65625 C-7.62780984 18.14972729 -7.62780984 18.14972729 -6.3671875 14.98046875 C-5.85436414 13.72232438 -5.35750314 12.45758101 -4.875 11.1875 C-4.37328317 9.93063501 -3.87070057 8.67411522 -3.3671875 7.41796875 C-2.91601562 6.29003906 -2.46484375 5.16210938 -2 4 C-1.35311265 2.65695905 -0.69702828 1.31771537 0 0 Z " fill="#1FA7DD" transform="translate(374,315)"/>
<path d="M0 0 C1 3 1 3 0.27734375 4.98046875 C-5.225377 13.68048901 -16.50419247 19.91711454 -26 23 C-26.99 23.66 -27.98 24.32 -29 25 C-35.2695639 26.48489671 -41.56357985 27.29256455 -48 27 C-44.81430397 25.25128858 -41.68965515 24.31771849 -38.1875 23.375 C-31.36055069 21.33848631 -25.48437713 18.27579335 -19.3125 14.8046875 C-16 13 -16 13 -13.125 11.9453125 C-12.42375 11.63335937 -11.7225 11.32140625 -11 11 C-10.67 10.01 -10.34 9.02 -10 8 C-8.36735356 6.54038617 -6.67087977 5.15093248 -4.9375 3.8125 C-4.01839844 3.09707031 -3.09929687 2.38164062 -2.15234375 1.64453125 C-1.44207031 1.10183594 -0.73179687 0.55914062 0 0 Z " fill="#24AADA" transform="translate(325,346)"/>
<path d="M0 0 C1.485 0.495 1.485 0.495 3 1 C2.690625 1.721875 2.38125 2.44375 2.0625 3.1875 C0.5440265 6.99566824 0.5440265 6.99566824 0 11 C2.29182272 13.79197732 2.29182272 13.79197732 5 16 C6 17 6 17 6.4375 19.5 C5.71374118 25.29007058 2.07703598 29.92296402 -2 34 C-5.37891706 35.24990029 -6.79270418 35.07922294 -10.19921875 33.77734375 C-11.35035156 33.17019531 -12.50148437 32.56304687 -13.6875 31.9375 C-14.29674316 31.61966553 -14.90598633 31.30183105 -15.53369141 30.97436523 C-20.81033831 28.18927596 -25.94976807 25.17675879 -31 22 C-29.68 21.67 -28.36 21.34 -27 21 C-27 21.66 -27 22.32 -27 23 C-25.4221875 22.8453125 -25.4221875 22.8453125 -23.8125 22.6875 C-18.99683056 23.082227 -18.21263069 24.54642201 -15 28 C-11.04114542 30.05012112 -7.50041882 31.87508144 -3 31 C-1.29467677 29.05990478 -1.29467677 29.05990478 0 27 C0.66 27 1.32 27 2 27 C2 23.37 2 19.74 2 16 C0.68 15.67 -0.64 15.34 -2 15 C-3.231394 11.30581799 -2.64432764 8.7943739 -2 5 C-1.34 5 -0.68 5 0 5 C0 3.35 0 1.7 0 0 Z " fill="#48ADCE" transform="translate(261,261)"/>
<path d="M0 0 C3 1.5 3 1.5 6 3 C5.21753906 3.33773438 4.43507813 3.67546875 3.62890625 4.0234375 C2.61699219 4.46945312 1.60507812 4.91546875 0.5625 5.375 C-0.44683594 5.81585938 -1.45617187 6.25671875 -2.49609375 6.7109375 C-5.12143547 7.75076286 -5.12143547 7.75076286 -6 10 C-6.639375 10.268125 -7.27875 10.53625 -7.9375 10.8125 C-10.68156708 12.39241741 -11.06890124 14.0515206 -12 17 C-10.68 17.33 -9.36 17.66 -8 18 C-9.61992165 18.86375896 -11.24611861 19.71575854 -12.875 20.5625 C-13.77992188 21.03816406 -14.68484375 21.51382812 -15.6171875 22.00390625 C-16.40351563 22.33261719 -17.18984375 22.66132813 -18 23 C-18.66 22.67 -19.32 22.34 -20 22 C-19.67 21.01 -19.34 20.02 -19 19 C-20.36125 18.7834375 -20.36125 18.7834375 -21.75 18.5625 C-24.21797731 18.13535008 -26.58066016 17.6258727 -29 17 C-28.34515625 16.72027344 -27.6903125 16.44054687 -27.015625 16.15234375 C-18.93849541 12.60433909 -10.79728104 8.69281036 -3.77734375 3.2890625 C-2 2 -2 2 0 2 C0 1.34 0 0.68 0 0 Z " fill="#44438C" transform="translate(307,336)"/>
<path d="M0 0 C0.33 0 0.66 0 1 0 C6.57855782 18.36049611 7.91459103 36.23159029 6.125 55.3125 C6.04668945 56.16118652 5.96837891 57.00987305 5.88769531 57.88427734 C5.3818183 62.80446428 4.51305021 67.28920082 3 72 C2.67 72 2.34 72 2 72 C2.10828125 70.77216797 2.10828125 70.77216797 2.21875 69.51953125 C2.93389644 60.09350393 3.11057107 50.70274951 3.125 41.25 C3.12951172 40.03159424 3.13402344 38.81318848 3.13867188 37.55786133 C3.38047439 24.50687058 3.38047439 24.50687058 0.9375 11.8125 C-0.37809386 7.86571842 -0.16491038 4.12275958 0 0 Z " fill="#43ABD0" transform="translate(374,240)"/>
<path d="M0 0 C2.0625 2.1875 2.0625 2.1875 3 5 C2.41047741 8.34062802 1.90352362 10.25781989 -0.75 12.4375 C-3.79159969 13.19789992 -5.98642844 12.7861491 -9 12 C-11 10 -11 10 -11.375 6.0625 C-11.28635216 3.19448154 -11.21085143 2.27832389 -9.4375 -0.0625 C-5.874103 -1.43303731 -3.6365931 -1.05791799 0 0 Z " fill="#19A1D3" transform="translate(250,106)"/>
<path d="M0 0 C1.875 1.1875 1.875 1.1875 3 3 C3.53852618 6.61581862 3.42236225 8.34111489 1.4375 11.4375 C-1 13 -1 13 -4.5625 13 C-8 12 -8 12 -10 10.3125 C-11.38906225 7.10029355 -11.05521374 5.3063364 -10 2 C-6.88033777 -1.58183441 -4.3851177 -1.30620527 0 0 Z " fill="#1B9FD0" transform="translate(207,308)"/>
<path d="M0 0 C-0.556875 0.4125 -1.11375 0.825 -1.6875 1.25 C-15.31199705 11.5604302 -25.83404873 23.90484081 -32 40 C-33.109375 38.3359375 -33.109375 38.3359375 -34 36 C-33.390625 33.4140625 -33.390625 33.4140625 -32.25 30.625 C-31.01017895 27.53986389 -29.91056975 24.66016507 -29.0625 21.4375 C-28 19 -28 19 -25.625 17.75 C-24.75875 17.5025 -23.8925 17.255 -23 17 C-20.79927039 16.27489266 -20.79927039 16.27489266 -19 15 C-18.31246699 13.34183216 -17.64438717 11.67540664 -17 10 C-16.01 9.67 -15.02 9.34 -14 9 C-13.67 8.34 -13.34 7.68 -13 7 C-12 5 -12 5 -9 4 C-9 3.34 -9 2.68 -9 2 C-5.59159007 -0.55630744 -4.03546861 -1.28479663 0 0 Z " fill="#4D4C8B" transform="translate(200,200)"/>
<path d="M0 0 C2 2 2 2 2.25 4.9375 C2 8 2 8 0 11 C-2.3828125 11.29296875 -2.3828125 11.29296875 -5.125 11.1875 C-6.03507813 11.16042969 -6.94515625 11.13335937 -7.8828125 11.10546875 C-8.58148438 11.07066406 -9.28015625 11.03585937 -10 11 C-11.49928548 8.29895263 -12.00243932 7.11952651 -11.9375 3.9375 C-11 1 -11 1 -8.8125 -1 C-5.13066335 -2.30909747 -3.48546567 -1.62655064 0 0 Z " fill="#189DCD" transform="translate(226,289)"/>
<path d="M0 0 C1.9375 1.6875 1.9375 1.6875 3 4 C2.77962372 7.67293796 2.63033454 9.36966546 0 12 C-7.1372549 12.67973856 -7.1372549 12.67973856 -10.0625 10.375 C-11.34452118 7.12721302 -11.05543562 5.30703161 -10 2 C-6.89527044 -1.5646895 -4.35928569 -1.39126139 0 0 Z " fill="#3E3E7F" transform="translate(239,310)"/>
<path d="M0 0 C0.33 0 0.66 0 1 0 C1.33 2.64 1.66 5.28 2 8 C2.66 7.01 3.32 6.02 4 5 C4.66 4.01 5.32 3.02 6 2 C5.33333333 6.66666667 4.66666667 11.33333333 4 16 C2.68 16.33 1.36 16.66 0 17 C0 17.99 0 18.98 0 20 C-0.99 20 -1.98 20 -3 20 C-2.95875 21.093125 -2.9175 22.18625 -2.875 23.3125 C-3 27 -3 27 -5 30 C-6.6396721 31.36639342 -8.30327614 32.70513179 -10 34 C-10.66 33.67 -11.32 33.34 -12 33 C-11.1875 29.5625 -11.1875 29.5625 -10 26 C-9.01 25.67 -8.02 25.34 -7 25 C-5.97549761 22.81862203 -5.97549761 22.81862203 -5 20 C-3.71032642 17.31110527 -2.35730552 14.65531129 -1 12 C-0.34 12 0.32 12 1 12 C1 11.34 1 10.68 1 10 C0.01 10.33 -0.98 10.66 -2 11 C-1.40049704 7.31733897 -0.75241109 3.65456815 0 0 Z " fill="#2A2C7E" transform="translate(334,293)"/>
<path d="M0 0 C0.66 0.33 1.32 0.66 2 1 C2.86897491 4.54274386 3.39022381 6.98541809 2.0625 10.4375 C-1.26216427 12.95618505 -3.89871822 12.39059827 -8 12 C-10 10 -10 10 -10.375 6.0625 C-10.29026119 3.14960354 -10.22490881 2.28546119 -8.375 -0.0625 C-5.21609755 -1.30943518 -3.24681029 -0.84699399 0 0 Z " fill="#565688" transform="translate(195,292)"/>
<path d="M0 0 C1 2 1 2 0.1875 5.0625 C-1 8 -1 8 -3 9 C-4.39074713 11.78149426 -5.01054581 14.08963941 -5.375 17.1875 C-6.06007416 21.36645238 -7.43500311 24.72708879 -9.16015625 28.5703125 C-10.0674821 31.19522728 -10.15206802 33.24315395 -10 36 C-10.66 36 -11.32 36 -12 36 C-12.04487549 36.55461914 -12.08975098 37.10923828 -12.13598633 37.68066406 C-12.34794185 40.20512554 -12.58000619 42.72735059 -12.8125 45.25 C-12.88275391 46.12269531 -12.95300781 46.99539063 -13.02539062 47.89453125 C-13.78595074 55.86520127 -13.78595074 55.86520127 -17 59 C-18.66138191 39.10033671 -11.41579825 16.25886417 0 0 Z " fill="#5D5D93" transform="translate(152,214)"/>
<path d="M0 0 C1.9375 1.125 1.9375 1.125 3 3 C3.42478586 7.07794425 3.31282587 8.53076119 1 12 C-2.16912098 12.89562115 -4.17702854 13.28915213 -7.3125 12.1875 C-9 11 -9 11 -10 9 C-10.44396083 3.78346028 -10.44396083 3.78346028 -8.9375 1.125 C-5.8930714 -0.64273274 -3.4368988 -0.36823916 0 0 Z " fill="#55A8C7" transform="translate(266,131)"/>
<path d="M0 0 C0.70125 -0.01675781 1.4025 -0.03351563 2.125 -0.05078125 C2.74375 0.06910156 3.3625 0.18898437 4 0.3125 C6.32749345 3.80374017 6.50299316 5.20472251 6 9.3125 C4.375 11.75 4.375 11.75 2 13.3125 C-1.06275204 13.12873488 -3.2605309 12.68223455 -6 11.3125 C-6.05399736 9.85457116 -6.09279177 8.39607288 -6.125 6.9375 C-6.15980469 5.71933594 -6.15980469 5.71933594 -6.1953125 4.4765625 C-5.82834951 0.4106126 -3.58217576 0.01975465 0 0 Z " fill="#4D4B7F" transform="translate(245,152.6875)"/>
<path d="M0 0 C-0.33 2.31 -0.66 4.62 -1 7 C-1.99 7.33 -2.98 7.66 -4 8 C-4.474375 8.66 -4.94875 9.32 -5.4375 10 C-7.22804402 12.29189635 -8.18127263 12.61121002 -11 13 C-11 13.66 -11 14.32 -11 15 C-12.32 15 -13.64 15 -15 15 C-15 16.32 -15 17.64 -15 19 C-16.98 19 -18.96 19 -21 19 C-20.25 14.25 -20.25 14.25 -18 12 C-17.01 12 -16.02 12 -15 12 C-14.67 11.01 -14.34 10.02 -14 9 C-11.93359375 7.83203125 -11.93359375 7.83203125 -9.4375 6.8125 C-8.19806641 6.29623047 -8.19806641 6.29623047 -6.93359375 5.76953125 C-6.29550781 5.51558594 -5.65742188 5.26164062 -5 5 C-5.99 5 -6.98 5 -8 5 C-6.44843568 0.34530705 -4.78780941 0 0 0 Z " fill="#31308C" transform="translate(316,334)"/>
<path d="M0 0 C4.95 0 9.9 0 15 0 C15 0.66 15 1.32 15 2 C12.03 2 9.06 2 6 2 C6 2.66 6 3.32 6 4 C6.70125 4.268125 7.4025 4.53625 8.125 4.8125 C12.22071686 6.50420914 16.11718529 8.54958433 20.0625 10.5625 C22.67410265 11.84051832 25.28567219 12.96216878 28 14 C28 14.33 28 14.66 28 15 C22.71129443 14.5533982 18.0088395 13.86375423 13 12 C12.236875 11.855625 11.47375 11.71125 10.6875 11.5625 C10.130625 11.376875 9.57375 11.19125 9 11 C8.67 10.01 8.34 9.02 8 8 C7.01 7.67 6.02 7.34 5 7 C4.67 6.34 4.34 5.68 4 5 C1.97536745 4.34786708 1.97536745 4.34786708 0 4 C0 2.68 0 1.36 0 0 Z " fill="#1DA6D1" transform="translate(198,355)"/>
<path d="M0 0 C0.33 1.32 0.66 2.64 1 4 C0.34 4 -0.32 4 -1 4 C-1 5.32 -1 6.64 -1 8 C-1.66 8 -2.32 8 -3 8 C-2.67 9.32 -2.34 10.64 -2 12 C-2.99 12.33 -3.98 12.66 -5 13 C-4.6596875 14.1446875 -4.6596875 14.1446875 -4.3125 15.3125 C-4 18 -4 18 -5.3125 19.8125 C-7 21 -7 21 -9 21 C-9.33 22.32 -9.66 23.64 -10 25 C-10.66 25 -11.32 25 -12 25 C-12.33 27.31 -12.66 29.62 -13 32 C-13.99 32 -14.98 32 -16 32 C-16.33 32.99 -16.66 33.98 -17 35 C-17.66 35 -18.32 35 -19 35 C-15.46501137 25.74956245 -10.09100263 17.39301206 -4.83203125 9.04296875 C-3.0556174 6.09237944 -1.49683748 3.1002609 0 0 Z " fill="#35ACD5" transform="translate(259,173)"/>
<path d="M0 0 C0.33 0 0.66 0 1 0 C0.40546697 12.66970387 0.40546697 12.66970387 -3 18 C-3.99 18 -4.98 18 -6 18 C-6.309375 18.94875 -6.61875 19.8975 -6.9375 20.875 C-8 24 -8 24 -9 26 C-9.66 26 -10.32 26 -11 26 C-11.1546875 26.9590625 -11.1546875 26.9590625 -11.3125 27.9375 C-11.539375 28.618125 -11.76625 29.29875 -12 30 C-12.99 30.33 -13.98 30.66 -15 31 C-15.495 32.485 -15.495 32.485 -16 34 C-17.32 33.67 -18.64 33.34 -20 33 C-19.45472656 32.3915625 -18.90945313 31.783125 -18.34765625 31.15625 C-13.58194319 25.61661773 -9.63242678 20.05105835 -6.0625 13.6875 C-5.68552979 13.01847656 -5.30855957 12.34945313 -4.92016602 11.66015625 C-2.84362469 7.86348428 -1.23473568 4.16965715 0 0 Z " fill="#43ACD2" transform="translate(346,312)"/>
<path d="M0 0 C-0.99 0.33 -1.98 0.66 -3 1 C-3 1.66 -3 2.32 -3 3 C-4.65 3.33 -6.3 3.66 -8 4 C-8 4.66 -8 5.32 -8 6 C-8.66 6 -9.32 6 -10 6 C-10.268125 6.721875 -10.53625 7.44375 -10.8125 8.1875 C-13.30501039 14.09081407 -17.12601243 18.94751782 -21 24 C-21.99 23.67 -22.98 23.34 -24 23 C-22.62992438 19.34426939 -20.98982135 16.04532353 -19 12.6875 C-18.484375 11.80449219 -17.96875 10.92148438 -17.4375 10.01171875 C-16.963125 9.34785156 -16.48875 8.68398437 -16 8 C-15.34 8 -14.68 8 -14 8 C-13.7215625 7.13375 -13.7215625 7.13375 -13.4375 6.25 C-10.46874859 1.60325867 -5.47252076 -0.66333585 0 0 Z " fill="#1FA9D8" transform="translate(303,117)"/>
<path d="M0 0 C0.66 0.33 1.32 0.66 2 1 C-0.66666667 6.33333333 -3.33333333 11.66666667 -6 17 C-0.39 20.96 5.22 24.92 11 29 C7.11723549 30.29425484 5.69616939 29.43092028 1.9375 27.9375 C0.87402344 27.53402344 -0.18945312 27.13054687 -1.28515625 26.71484375 C-4 25 -4 25 -5.37109375 21.81640625 C-5.68240234 20.42228516 -5.68240234 20.42228516 -6 19 C-6.66 19 -7.32 19 -8 19 C-8 17.02 -8 15.04 -8 13 C-7.34 13 -6.68 13 -6 13 C-5.87625 12.42636719 -5.7525 11.85273438 -5.625 11.26171875 C-4.97965546 8.92637821 -4.09995691 6.96793027 -3 4.8125 C-2.4740625 3.77029297 -2.4740625 3.77029297 -1.9375 2.70703125 C-1 1 -1 1 0 0 Z " fill="#6BBFDB" transform="translate(324,154)"/>
<path d="M0 0 C2.97 0.495 2.97 0.495 6 1 C6.33 2.65 6.66 4.3 7 6 C7.99 6.33 8.98 6.66 10 7 C10.45375 7.474375 10.9075 7.94875 11.375 8.4375 C12.96974354 10.1913843 12.96974354 10.1913843 15.5625 10.875 C18.76886813 12.35486221 18.72863138 13.82157846 20 17 C22.44288628 18.31068333 22.44288628 18.31068333 25 19 C25.66 19.33 26.32 19.66 27 20 C27 20.66 27 21.32 27 22 C28.32 22.33 29.64 22.66 31 23 C31 23.66 31 24.32 31 25 C26.77704852 24.41752393 23.72779724 21.94339471 20.375 19.5 C19.75906982 19.05438721 19.14313965 18.60877441 18.50854492 18.1496582 C4.20331113 7.64602311 4.20331113 7.64602311 0 0 Z " fill="#43AED3" transform="translate(165,361)"/>
<path d="M0 0 C0.66 0.99 1.32 1.98 2 3 C1.01 4.98 0.02 6.96 -1 9 C-6.61 9 -12.22 9 -18 9 C-18.99 11.31 -19.98 13.62 -21 16 C-21.66 16 -22.32 16 -23 16 C-23 18.31 -23 20.62 -23 23 C-23.33 23 -23.66 23 -24 23 C-24.6006222 16.27303135 -23.35565212 12.22678255 -19 7 C-15.28424249 4.52282833 -13.40013262 4.69654258 -9 5 C-6.0625 6 -6.0625 6 -4 7 C-2.68 4.69 -1.36 2.38 0 0 Z " fill="#45ABD0" transform="translate(221,239)"/>
<path d="M0 0 C0.66 0.33 1.32 0.66 2 1 C0.625 3 0.625 3 -1 5 C-1.66 5 -2.32 5 -3 5 C-3 5.66 -3 6.32 -3 7 C-4.11375 7.37125 -5.2275 7.7425 -6.375 8.125 C-9.54260831 9.45973818 -9.8773305 9.72678156 -11.375 13.0625 C-11.58125 14.031875 -11.7875 15.00125 -12 16 C-12.33 16.66 -12.66 17.32 -13 18 C-14.65449105 18.38929201 -16.32546201 18.708776 -18 19 C-20.33762223 19.65146849 -22.67190457 20.31526605 -25 21 C-23.71937515 19.2925002 -22.38232443 17.62626404 -21 16 C-20.34 16 -19.68 16 -19 16 C-19 15.34 -19 14.68 -19 14 C-16.99294997 12.29073188 -14.9847099 10.69810977 -12.875 9.125 C-12.02035156 8.47337891 -12.02035156 8.47337891 -11.1484375 7.80859375 C-7.5194811 5.06213356 -3.8094588 2.48946396 0 0 Z " fill="#474891" transform="translate(194,172)"/>
<path d="M0 0 C0.66 0.99 1.32 1.98 2 3 C0.68 5.64 -0.64 8.28 -2 11 C-2.66 11 -3.32 11 -4 11 C-4.19335938 11.58007812 -4.38671875 12.16015625 -4.5859375 12.7578125 C-5.12526444 14.37579332 -5.67114532 15.99160036 -6.22265625 17.60546875 C-7.08525734 20.15159728 -7.08525734 20.15159728 -7.8125 23.4375 C-9 26 -9 26 -12.125 27.375 C-13.07375 27.58125 -14.0225 27.7875 -15 28 C-13.60582632 24.29102741 -11.92181521 20.92161688 -9.9609375 17.48046875 C-9.09082031 15.9480957 -9.09082031 15.9480957 -8.203125 14.38476562 C-7.59984375 13.32966797 -6.9965625 12.27457031 -6.375 11.1875 C-5.76398438 10.11306641 -5.15296875 9.03863281 -4.5234375 7.93164062 C-3.01844115 5.28613924 -1.51054209 2.6423375 0 0 Z " fill="#4AB3D4" transform="translate(278,140)"/>
<path d="M0 0 C3 1 3 1 4.75390625 3.984375 C5.36704656 5.23459603 5.96952578 6.49008919 6.5625 7.75 C6.86607422 8.37132812 7.16964844 8.99265625 7.48242188 9.6328125 C8.34357712 11.41140764 9.17252951 13.20548569 10 15 C10.63228516 16.36898437 10.63228516 16.36898437 11.27734375 17.765625 C12 20 12 20 11 23 C9.5 21.6875 9.5 21.6875 8 20 C8 19.01 8 18.02 8 17 C7.34 17 6.68 17 6 17 C6 16.34 6 15.68 6 15 C4.68 14.67 3.36 14.34 2 14 C2 11.36 2 8.72 2 6 C1.34 6 0.68 6 0 6 C0 4.02 0 2.04 0 0 Z " fill="#3BAED7" transform="translate(362,217)"/>
<path d="M0 0 C0.33 0 0.66 0 1 0 C1.33 2.64 1.66 5.28 2 8 C2.33 8 2.66 8 3 8 C3.12117187 8.88042969 3.24234375 9.76085937 3.3671875 10.66796875 C3.53476563 11.82941406 3.70234375 12.99085938 3.875 14.1875 C4.03742188 15.33605469 4.19984375 16.48460937 4.3671875 17.66796875 C4.9425884 20.6977031 5.83494599 23.16503523 7 26 C7.125 29.3125 7.125 29.3125 7 32 C7.66 32.33 8.32 32.66 9 33 C7.02 33.495 7.02 33.495 5 34 C0.83230707 22.49716752 -0.29275418 12.1980907 0 0 Z " fill="#41417E" transform="translate(135,281)"/>
<path d="M0 0 C1.60416667 0.29166667 3.20833333 0.58333333 4.8125 0.875 C6.33423828 1.14570313 6.33423828 1.14570313 7.88671875 1.421875 C9.79132437 1.77555333 11.69167049 2.15486722 13.58203125 2.578125 C25.81852822 5.20962972 38.63775743 4.33388359 51 3 C50.67 3.66 50.34 4.32 50 5 C35.98204743 7.612665 16.34991597 8.70128221 3 3 C1.18359375 1.39453125 1.18359375 1.39453125 0 0 Z " fill="#4BA7C8" transform="translate(226,370)"/>
<path d="M0 0 C3.35997419 1.52726099 4.67997904 2.34471899 6.3125 5.6875 C6.6528125 6.8321875 6.6528125 6.8321875 7 8 C6.34 7.67 5.68 7.34 5 7 C5 6.34 5 5.68 5 5 C1.37 4.67 -2.26 4.34 -6 4 C-6.33 4.66 -6.66 5.32 -7 6 C-7.66 6 -8.32 6 -9 6 C-9 6.99 -9 7.98 -9 9 C-10.32 9.33 -11.64 9.66 -13 10 C-8.53941267 -2.00927357 -8.53941267 -2.00927357 0 0 Z " fill="#38A0C7" transform="translate(327,99)"/>
<path d="M0 0 C0.33 1.65 0.66 3.3 1 5 C-4.24385089 6.7479503 -8.47322267 7.19392201 -14 7 C-14.33 6.34 -14.66 5.68 -15 5 C-14.34 5 -13.68 5 -13 5 C-13 4.34 -13 3.68 -13 3 C-8.72352613 0.14901742 -5.0682068 -0.14480591 0 0 Z " fill="#2F3087" transform="translate(287,353)"/>
<path d="M0 0 C0.33 0 0.66 0 1 0 C-0.0686311 12.28925767 -6.94225941 22.56722454 -13 33 C-14.1171875 29.28125 -14.1171875 29.28125 -13.0625 26.75 C-12.711875 26.1725 -12.36125 25.595 -12 25 C-11.34 25 -10.68 25 -10 25 C-10.061875 24.071875 -10.12375 23.14375 -10.1875 22.1875 C-10 19 -10 19 -8.6484375 17.671875 C-6.41153636 15.40316958 -5.60201997 13.01578105 -4.4375 10.0625 C-3.07316693 6.63254116 -1.71120468 3.27258038 0 0 Z " fill="#58BADA" transform="translate(374,315)"/>
<path d="M0 0 C3.69468013 0.59167475 6.5708841 1.63321366 9.875 3.375 C12.84049079 4.91511352 15.76247396 6.34834652 18.875 7.5625 C22.03951508 9.01817694 23.81650941 10.31262697 26 13 C26.33 13.99 26.66 14.98 27 16 C22.81907925 14.46463362 19.02779515 12.41820604 15.1875 10.1875 C14.57310059 9.83292725 13.95870117 9.47835449 13.32568359 9.11303711 C8.82138606 6.50244359 4.34619945 3.86849163 0 1 C0 0.67 0 0.34 0 0 Z " fill="#42B0D8" transform="translate(203,266)"/>
<path d="M0 0 C0.99 0 1.98 0 3 0 C3.33 0.99 3.66 1.98 4 3 C-0.26275252 10.27465874 -10.02587305 18.34195768 -18 21 C-18 20.01 -18 19.02 -18 18 C-17.01 17.34 -16.02 16.68 -15 16 C-14.34 15.34 -13.68 14.68 -13 14 C-10.375 13.375 -10.375 13.375 -8 13 C-7.67 12.01 -7.34 11.02 -7 10 C-5.6875 8.5625 -5.6875 8.5625 -4 7 C-2.64748503 5.68612831 -1.31054623 4.35573748 0 3 C0 2.67 0 2.34 0 2 C0 1.34 0 0.68 0 0 Z " fill="#5F5D9A" transform="translate(319,331)"/>
<path d="M0 0 C-0.556875 0.4125 -1.11375 0.825 -1.6875 1.25 C-7.24708668 5.45725478 -12.16938579 9.98319509 -17 15 C-18.3310003 16.33566229 -19.66372008 17.66961978 -21 19 C-21 17.68 -21 16.36 -21 15 C-20.34 15 -19.68 15 -19 15 C-18.731875 14.195625 -18.46375 13.39125 -18.1875 12.5625 C-17.5996875 11.2940625 -17.5996875 11.2940625 -17 10 C-16.01 9.67 -15.02 9.34 -14 9 C-13.67 8.34 -13.34 7.68 -13 7 C-12 5 -12 5 -9 4 C-9 3.34 -9 2.68 -9 2 C-5.59159007 -0.55630744 -4.03546861 -1.28479663 0 0 Z " fill="#636296" transform="translate(200,200)"/>
<path d="M0 0 C1.875 1.1875 1.875 1.1875 3 3 C3.53852618 6.61581862 3.42236225 8.34111489 1.4375 11.4375 C-1 13 -1 13 -4.5625 13 C-8 12 -8 12 -10 10.3125 C-11.38906225 7.10029355 -11.05521374 5.3063364 -10 2 C-6.88033777 -1.58183441 -4.3851177 -1.30620527 0 0 Z M-9 3 C-9.2502157 6.08365871 -9.2502157 6.08365871 -9 9 C-8.01 9 -7.02 9 -6 9 C-6 9.66 -6 10.32 -6 11 C-4.35 11 -2.7 11 -1 11 C-1 10.34 -1 9.68 -1 9 C-0.01 9 0.98 9 2 9 C2.33425735 6.62625139 2.33425735 6.62625139 2 4 C0.32683688 2.07845307 0.32683688 2.07845307 -2 1 C-6.04622502 0.63019987 -6.04622502 0.63019987 -9 3 Z " fill="#73BDD1" transform="translate(207,308)"/>
<path d="M0 0 C0.33 0 0.66 0 1 0 C1.07517053 4.3375321 1.12907363 8.67470103 1.16479492 13.01269531 C1.17971429 14.48281473 1.20005727 15.952891 1.22631836 17.42285156 C1.54273016 35.61342821 1.54273016 35.61342821 -2 44 C-2.99 44.66 -3.98 45.32 -5 46 C-4.49241166 43.3595645 -3.93772157 40.75257862 -3.28125 38.14453125 C-0.33386407 25.57393028 -0.26454264 12.86320328 0 0 Z " fill="#5DB2D3" transform="translate(352,266)"/>
<path d="M0 0 C1.258125 -0.04125 2.51625 -0.0825 3.8125 -0.125 C4.52019531 -0.14820313 5.22789062 -0.17140625 5.95703125 -0.1953125 C8 0 8 0 11 2 C18.48124327 4.30192101 26.25547165 5.052102 34 6 C34 6.33 34 6.66 34 7 C21.47630149 7.35333319 11.63859236 5.5580799 0 1 C0 0.67 0 0.34 0 0 Z " fill="#40AED4" transform="translate(212,394)"/>
<path d="M0 0 C1.66611905 -0.042721 3.33382885 -0.04063832 5 0 C6 1 6 1 6.09765625 3.94140625 C6.08605469 5.13636719 6.07445312 6.33132813 6.0625 7.5625 C6.05347656 8.76003906 6.04445313 9.95757812 6.03515625 11.19140625 C6.02355469 12.11824219 6.01195312 13.04507812 6 14 C5.67 14 5.34 14 5 14 C4.67 10.04 4.34 6.08 4 2 C3.34 2 2.68 2 2 2 C1.93941406 2.76183594 1.87882812 3.52367187 1.81640625 4.30859375 C1.55418477 7.53996924 1.27851576 10.7699908 1 14 C0.9278125 14.90105469 0.855625 15.80210937 0.78125 16.73046875 C0.22946589 22.77053411 0.22946589 22.77053411 -2 25 C-1.8608331 21.58302762 -1.71250415 18.16651243 -1.5625 14.75 C-1.52318359 13.78191406 -1.48386719 12.81382812 -1.44335938 11.81640625 C-1.40146484 10.88183594 -1.35957031 9.94726562 -1.31640625 8.984375 C-1.27974854 8.12553711 -1.24309082 7.26669922 -1.20532227 6.38183594 C-1.01296486 4.15039857 -0.61153756 2.15017476 0 0 Z " fill="#2A296F" transform="translate(337,267)"/>
<path d="M0 0 C0.79953138 3.28696233 1.09658936 4.71023192 0 8 C-2.31 8 -4.62 8 -7 8 C-7.33 5.69 -7.66 3.38 -8 1 C-5.29120665 -0.35439668 -2.99066732 -0.06501451 0 0 Z " fill="#303092" transform="translate(194,295)"/>
<path d="M0 0 C1.9375 1.6875 1.9375 1.6875 3 4 C2.6875 7.25 2.6875 7.25 2 10 C1.01 10 0.02 10 -1 10 C-1 7.36 -1 4.72 -1 2 C-2.98 2 -4.96 2 -7 2 C-7 2.66 -7 3.32 -7 4 C-7.66 4 -8.32 4 -9 4 C-9 5.98 -9 7.96 -9 10 C-9.66 9.34 -10.32 8.68 -11 8 C-10.85532052 4.60003226 -10.57183202 2.65654787 -8.3125 0.0625 C-5.10056066 -1.41325591 -3.33525198 -1.06444212 0 0 Z " fill="#6A6B91" transform="translate(239,310)"/>
<path d="M0 0 C2 2 2 2 2.25 4.9375 C2 8 2 8 0 11 C-0.66 10.67 -1.32 10.34 -2 10 C-1.814375 8.865625 -1.62875 7.73125 -1.4375 6.5625 C-1.293125 5.386875 -1.14875 4.21125 -1 3 C-1.98267859 1.79438816 -1.98267859 1.79438816 -3.84765625 1.90234375 C-5.8984375 1.93489583 -7.94921875 1.96744792 -10 2 C-9.34 4.97 -8.68 7.94 -8 11 C-8.66 11 -9.32 11 -10 11 C-11.67382511 8.44003219 -12.00085095 7.04169676 -11.9375 3.9375 C-11 1 -11 1 -8.8125 -1 C-5.13066335 -2.30909747 -3.48546567 -1.62655064 0 0 Z " fill="#69B5D1" transform="translate(226,289)"/>
<path d="M0 0 C0.33 0 0.66 0 1 0 C0.98839844 1.01835937 0.97679687 2.03671875 0.96484375 3.0859375 C0.88336448 13.7609956 1.30238343 24.34888989 2 35 C-1.81854125 28.18117635 -2.23851996 21.95893059 -1.6875 14.375 C-1.61499023 13.12589844 -1.61499023 13.12589844 -1.54101562 11.8515625 C-1.28768285 7.82389197 -0.94015443 3.93739891 0 0 Z " fill="#7877A5" transform="translate(159,265)"/>
<path d="M0 0 C-1 2 -1 2 -3.625 3.0625 C-11.75288203 5.32024501 -19.60255123 5.10482252 -28 5 C-28 4.67 -28 4.34 -28 4 C-27.10796875 3.87882812 -26.2159375 3.75765625 -25.296875 3.6328125 C-23.54117187 3.38144531 -23.54117187 3.38144531 -21.75 3.125 C-20.58984375 2.96257812 -19.4296875 2.80015625 -18.234375 2.6328125 C-15.36300794 2.07102329 -13.54572843 1.32612213 -11 0 C-8.7109375 -0.44921875 -8.7109375 -0.44921875 -6.375 -0.6875 C-5.21097656 -0.81705078 -5.21097656 -0.81705078 -4.0234375 -0.94921875 C-2 -1 -2 -1 0 0 Z " fill="#1DA2D4" transform="translate(295,396)"/>
<path d="M0 0 C1.32 0.33 2.64 0.66 4 1 C4 1.66 4 2.32 4 3 C4.66 3 5.32 3 6 3 C7.65625 5.265625 7.65625 5.265625 9.5 8.25 C10.1084375 9.22453125 10.716875 10.1990625 11.34375 11.203125 C13.86746001 15.46486171 15.27904257 17.97723376 15 23 C12.83512934 20.20929652 10.96923201 17.36058699 9.1875 14.3125 C6.28981443 9.42492509 3.1981771 4.69519617 0 0 Z " fill="#55B5D3" transform="translate(329,217)"/>
<path d="M0 0 C1.32 0.66 2.64 1.32 4 2 C4 2.66 4 3.32 4 4 C3.5565625 4.43183594 3.113125 4.86367188 2.65625 5.30859375 C0.02843931 7.99218344 -1.16840728 11.33873512 -2.71875 14.72265625 C-4 17 -4 17 -7 19 C-7.33 19.99 -7.66 20.98 -8 22 C-8.66 22 -9.32 22 -10 22 C-8.13998898 17.1353558 -5.80212266 12.57216041 -3.4375 7.9375 C-2.15948168 5.32589735 -1.03783122 2.71432781 0 0 Z " fill="#515290" transform="translate(331,301)"/>
<path d="M0 0 C0.33 0 0.66 0 1 0 C1.33 2.64 1.66 5.28 2 8 C2.66 7.01 3.32 6.02 4 5 C4.66 4.01 5.32 3.02 6 2 C5.33333333 6.66666667 4.66666667 11.33333333 4 16 C3.01 16.33 2.02 16.66 1 17 C0.34 15.35 -0.32 13.7 -1 12 C-0.34 12 0.32 12 1 12 C1 11.34 1 10.68 1 10 C0.01 10.33 -0.98 10.66 -2 11 C-1.40049704 7.31733897 -0.75241109 3.65456815 0 0 Z " fill="#2D2E7C" transform="translate(334,293)"/>
<path d="M0 0 C1.875 0.5625 1.875 0.5625 4 2 C5.70322287 6.57180875 6.40859498 11.17019236 7 16 C7.66 16 8.32 16 9 16 C8.67 17.32 8.34 18.64 8 20 C7.34 20 6.68 20 6 20 C0.44419134 6.3667426 0.44419134 6.3667426 0 0 Z " fill="#3EABD6" transform="translate(343,235)"/>
<path d="M0 0 C0 0.66 0 1.32 0 2 C0.66 2 1.32 2 2 2 C2 2.66 2 3.32 2 4 C3.65 4 5.3 4 7 4 C7 3.67 7 3.34 7 3 C8.65 3 10.3 3 12 3 C8.0949151 6.55007718 5.02265357 7.81819916 0 9 C0.33 7.68 0.66 6.36 1 5 C-0.36125 4.7834375 -0.36125 4.7834375 -1.75 4.5625 C-4.21476956 4.13590527 -6.58847107 3.64925779 -9 3 C-2.25 0 -2.25 0 0 0 Z " fill="#5F619E" transform="translate(287,350)"/>
<path d="M0 0 C-1.51870698 0.485864 -3.04010699 0.96331201 -4.5625 1.4375 C-5.40941406 1.70433594 -6.25632812 1.97117187 -7.12890625 2.24609375 C-15.04429125 4.32455539 -22.79488174 4.11800815 -30.9375 4.0625 C-32.19369141 4.05798828 -33.44988281 4.05347656 -34.74414062 4.04882812 C-37.82947663 4.03709681 -40.91471316 4.020681 -44 4 C-44 3.67 -44 3.34 -44 3 C-42.97229492 2.96241577 -42.97229492 2.96241577 -41.92382812 2.92407227 C-38.7824065 2.80714393 -35.64121452 2.68486126 -32.5 2.5625 C-30.88351562 2.50352539 -30.88351562 2.50352539 -29.234375 2.44335938 C-19.54818709 2.8160623 -19.54818709 2.8160623 -11 0 C-6.97279717 -0.75984959 -3.92759816 -1.16180608 0 0 Z " fill="#15A0D3" transform="translate(288,373)"/>
<path d="M0 0 C0.66 0 1.32 0 2 0 C0.62902169 4.72701898 -1.36015206 8.48082695 -4 12.625 C-7.22352993 17.68793086 -7.22352993 17.68793086 -10 23 C-11.16186403 19.51440792 -10.59264087 18.35090577 -9.09375 15.1171875 C-6.94831821 10.96424453 -4.73963198 6.79274957 -2 3 C-1.34 3 -0.68 3 0 3 C0 2.01 0 1.02 0 0 Z " fill="#50ADCF" transform="translate(281,228)"/>
<path d="M0 0 C0 3 0 6 0 9 C-4 9 -4 9 -7 7 C-7.1875 3.875 -7.1875 3.875 -7 1 C-4.53721199 -0.231394 -2.7204945 -0.07159196 0 0 Z " fill="#2A2C77" transform="translate(247,154)"/>
<path d="M0 0 C1.39049921 3.16022548 0.90218951 4.27014325 -0.3125 7.625 C-2 11 -2 11 -4 13 C-4.28875 13.845625 -4.5775 14.69125 -4.875 15.5625 C-6 18 -6 18 -8.125 18.8125 C-8.74375 18.874375 -9.3625 18.93625 -10 19 C-8.59478925 15.28429849 -6.91641021 11.85328453 -5 8.375 C-4.484375 7.43398437 -3.96875 6.49296875 -3.4375 5.5234375 C-2.3640955 3.63914591 -1.20291339 1.80437008 0 0 Z " fill="#50B3D3" transform="translate(232,220)"/>
<path d="M0 0 C1 2 1 2 0.1875 5.0625 C-1 8 -1 8 -3 9 C-4.94350927 12.88701855 -5.49540386 16.71093278 -6 21 C-6.99 21.33 -7.98 21.66 -9 22 C-9.33 22.99 -9.66 23.98 -10 25 C-11 23 -11 23 -9.9609375 19.8046875 C-9.44259141 18.49068185 -8.913296 17.18095977 -8.375 15.875 C-8.10155762 15.20009521 -7.82811523 14.52519043 -7.54638672 13.82983398 C-5.48229275 8.86321991 -3.07277169 4.42840626 0 0 Z " fill="#8281A7" transform="translate(152,214)"/>
<path d="M0 0 C2.5 1.375 2.5 1.375 5 3 C5 3.66 5 4.32 5 5 C5.598125 5.268125 6.19625 5.53625 6.8125 5.8125 C8.99847854 6.99917406 10.41332594 8.09599113 12 10 C12 10.66 12 11.32 12 12 C12.99 12.33 13.98 12.66 15 13 C13.68 13.33 12.36 13.66 11 14 C10.67 13.01 10.34 12.02 10 11 C9.2575 10.7525 8.515 10.505 7.75 10.25 C3.90476495 8.50216588 2.02301324 5.6500324 0 2 C0 1.34 0 0.68 0 0 Z " fill="#54B5D8" transform="translate(335,184)"/>
<path d="M0 0 C2.625 0.375 2.625 0.375 5 1 C5.625 3.375 5.625 3.375 6 6 C5.34 6.66 4.68 7.32 4 8 C1.375 7.625 1.375 7.625 -1 7 C-1.625 4.625 -1.625 4.625 -2 2 C-1.34 1.34 -0.68 0.68 0 0 Z " fill="#0CABEB" transform="translate(261,133)"/>
<path d="M0 0 C4.8646442 1.86001102 9.42783959 4.19787734 14.0625 6.5625 C16.67410265 7.84051832 19.28567219 8.96216878 22 10 C22 10.33 22 10.66 22 11 C14.92979257 10.66332346 9.80453669 9.15905419 4 5 C3.67 4.34 3.34 3.68 3 3 C2.01 2.67 1.02 2.34 0 2 C0 1.34 0 0.68 0 0 Z " fill="#5DBBD6" transform="translate(204,359)"/>
<path d="M0 0 C-2.07772471 0.86772029 -4.16243177 1.71873619 -6.25 2.5625 C-7.99023438 3.27599609 -7.99023438 3.27599609 -9.765625 4.00390625 C-12.86266644 4.95770524 -14.07321701 5.20983356 -17 4 C-16.67 3.01 -16.34 2.02 -16 1 C-13.41796875 -0.01953125 -13.41796875 -0.01953125 -10.1875 -0.8125 C-9.12917969 -1.08707031 -8.07085937 -1.36164063 -6.98046875 -1.64453125 C-3.80348491 -2.02343758 -2.61691829 -1.74250007 0 0 Z " fill="#48488F" transform="translate(287,360)"/>
<path d="M0 0 C2 1 4 2 6 3 C4.82630859 3.50660156 4.82630859 3.50660156 3.62890625 4.0234375 C2.61699219 4.46945312 1.60507812 4.91546875 0.5625 5.375 C-0.44683594 5.81585938 -1.45617187 6.25671875 -2.49609375 6.7109375 C-5.12143547 7.75076286 -5.12143547 7.75076286 -6 10 C-7.98 10 -9.96 10 -12 10 C-9.94870558 7.86088258 -7.84304969 6.04262537 -5.4375 4.3125 C-4.53837891 3.65701172 -4.53837891 3.65701172 -3.62109375 2.98828125 C-2 2 -2 2 0 2 C0 1.34 0 0.68 0 0 Z " fill="#4A4891" transform="translate(307,336)"/>
<path d="M0 0 C0.33 0.66 0.66 1.32 1 2 C-1.07468016 7.64774044 -4.01152057 12.79083229 -7 18 C-7.33 18 -7.66 18 -8 18 C-8.125 13.25 -8.125 13.25 -7 11 C-6.34 11 -5.68 11 -5 11 C-5 8.69 -5 6.38 -5 4 C-4.01 4 -3.02 4 -2 4 C-2 3.01 -2 2.02 -2 1 C-1.34 0.67 -0.68 0.34 0 0 Z " fill="#595893" transform="translate(336,309)"/>
<path d="M0 0 C0.33 0 0.66 0 1 0 C3.41971936 11.05595352 1.19854649 20.41909399 -2 31 C-2.33 31 -2.66 31 -3 31 C-2.855625 29.906875 -2.71125 28.81375 -2.5625 27.6875 C-1.90689307 22.470742 -1.45251777 17.23765253 -1 12 C-0.34 12 0.32 12 1 12 C0.67 8.04 0.34 4.08 0 0 Z " fill="#67659A" transform="translate(341,276)"/>
<path d="M0 0 C0.66 0 1.32 0 2 0 C1.979375 1.134375 1.95875 2.26875 1.9375 3.4375 C1.58422523 6.81575674 1.58422523 6.81575674 3 8 C4.34747084 8.23075082 5.70377565 8.41153063 7.0625 8.5625 C8.361875 8.706875 9.66125 8.85125 11 9 C10.67 9.66 10.34 10.32 10 11 C6.55999206 12.01636598 4.55418921 12.18071387 1.125 11.0625 C-1 9 -1 9 -1.34375 7.05078125 C-1.375 4.875 -1.375 4.875 -1 1 C-0.67 0.67 -0.34 0.34 0 0 Z " fill="#61ADC6" transform="translate(240,107)"/>
<path d="M0 0 C0.66 0 1.32 0 2 0 C0.59808647 2.99254618 -1.03367489 5.5954611 -3 8.25 C-3.515625 8.95640625 -4.03125 9.6628125 -4.5625 10.390625 C-5.2740625 11.18726563 -5.2740625 11.18726563 -6 12 C-6.66 12 -7.32 12 -8 12 C-8.33 10.02 -8.66 8.04 -9 6 C-3.25 3 -3.25 3 -1 3 C-0.67 2.01 -0.34 1.02 0 0 Z " fill="#36AED6" transform="translate(355,352)"/>
<path d="M0 0 C11.88 0 23.76 0 36 0 C36.495 2.475 36.495 2.475 37 5 C36.01 4.34 35.02 3.68 34 3 C34 2.34 34 1.68 34 1 C22.78 1 11.56 1 0 1 C0 0.67 0 0.34 0 0 Z " fill="#4FADCA" transform="translate(128,356)"/>
<path d="M0 0 C1.00953985 3.02861956 1.01252048 4.36084991 0.66015625 7.44921875 C0.56669922 8.29677734 0.47324219 9.14433594 0.37695312 10.01757812 C0.22129883 11.33918945 0.22129883 11.33918945 0.0625 12.6875 C-0.08735352 14.02651367 -0.08735352 14.02651367 -0.24023438 15.39257812 C-0.48765302 17.59578221 -0.74112279 19.79811781 -1 22 C-1.66 22 -2.32 22 -3 22 C-3.33 22.99 -3.66 23.98 -4 25 C-4.18358387 19.6760679 -3.75502018 16.05858758 -2 11 C-1.67327175 8.65313487 -1.44285125 6.31421495 -1.24609375 3.953125 C-1 2 -1 2 0 0 Z " fill="#17A2DC" transform="translate(377,293)"/>
<path d="M0 0 C0.66 1.32 1.32 2.64 2 4 C1.01 5.32 0.02 6.64 -1 8 C-1.33 7.01 -1.66 6.02 -2 5 C-2.33 5.99 -2.66 6.98 -3 8 C-3.66 8 -4.32 8 -5 8 C-4.67 8.99 -4.34 9.98 -4 11 C-6.375 12.5625 -6.375 12.5625 -9 14 C-9.66 13.67 -10.32 13.34 -11 13 C-7.37 8.71 -3.74 4.42 0 0 Z " fill="#66659F" transform="translate(168,193)"/>
<path d="M0 0 C-0.99 0.33 -1.98 0.66 -3 1 C-3 1.66 -3 2.32 -3 3 C-4.65 3.33 -6.3 3.66 -8 4 C-8 4.66 -8 5.32 -8 6 C-9.32 6.33 -10.64 6.66 -12 7 C-12 7.66 -12 8.32 -12 9 C-13.65 9.66 -15.3 10.32 -17 11 C-16.67 10.01 -16.34 9.02 -16 8 C-15.34 8 -14.68 8 -14 8 C-13.7215625 7.13375 -13.7215625 7.13375 -13.4375 6.25 C-10.46874859 1.60325867 -5.47252076 -0.66333585 0 0 Z " fill="#55B5D4" transform="translate(303,117)"/>
<path d="M0 0 C2.31 0 4.62 0 7 0 C6.34 1.32 5.68 2.64 5 4 C4.34 4 3.68 4 3 4 C2.67 4.99 2.34 5.98 2 7 C1.030625 7.12375 0.06125 7.2475 -0.9375 7.375 C-2.4534375 7.684375 -2.4534375 7.684375 -4 8 C-4.33 8.66 -4.66 9.32 -5 10 C-5 9.01 -5 8.02 -5 7 C-4.01 6.67 -3.02 6.34 -2 6 C-1.67 5.34 -1.34 4.68 -1 4 C-0.34 4 0.32 4 1 4 C0.67 2.68 0.34 1.36 0 0 Z " fill="#44A9CA" transform="translate(340,364)"/>
<path d="M0 0 C0 0.66 0 1.32 0 2 C-3.30994713 3.65497356 -6.99123 3.10084335 -10.625 3.0625 C-11.42679688 3.05798828 -12.22859375 3.05347656 -13.0546875 3.04882812 C-15.03649006 3.03703168 -17.01825433 3.01909605 -19 3 C-19 2.34 -19 1.68 -19 1 C-16.39590255 0.83218705 -13.7917318 0.66570349 -11.1875 0.5 C-10.08051758 0.42845703 -10.08051758 0.42845703 -8.95117188 0.35546875 C-5.96175412 0.16609387 -2.99625426 0 0 0 Z " fill="#42AED4" transform="translate(232,354)"/>
<path d="M0 0 C0.33 0 0.66 0 1 0 C0.96519531 1.22976563 0.96519531 1.22976563 0.9296875 2.484375 C0.91164063 3.56203125 0.89359375 4.6396875 0.875 5.75 C0.85179688 6.81734375 0.82859375 7.8846875 0.8046875 8.984375 C0.99716658 11.95625193 1.36430741 13.54646112 3 16 C5.0335948 17.26804566 5.0335948 17.26804566 7 18 C7 18.66 7 19.32 7 20 C3.94818379 19.09270329 2.29525473 18.35852361 0.25 15.875 C-1.80040348 11.159072 -2.61328024 6.96249676 -1.0625 2 C-0.711875 1.34 -0.36125 0.68 0 0 Z " fill="#6ABCD7" transform="translate(121,336)"/>
<path d="M0 0 C1.98 0 3.96 0 6 0 C5.25 2.9375 5.25 2.9375 4 6 C1.875 6.875 1.875 6.875 0 7 C-1.125 2.25 -1.125 2.25 0 0 Z " fill="#2E3187" transform="translate(232,312)"/>
<path d="M0 0 C1.70884005 1.62339805 3.37446717 3.29319053 5 5 C5 5.66 5 6.32 5 7 C5.66 7 6.32 7 7 7 C7.33 8.32 7.66 9.64 8 11 C6.125 10.75 6.125 10.75 4 10 C3.30062468 8.68352881 2.63270867 7.34977849 2 6 C1.01 5.67 0.02 5.34 -1 5 C-0.67 3.35 -0.34 1.7 0 0 Z " fill="#2EA7D6" transform="translate(323,206)"/>
<path d="M0 0 C7.33333333 1.33333333 14.66666667 2.66666667 22 4 C22 4.33 22 4.66 22 5 C14.59359564 5.3332882 8.7401106 5.24523844 2 2 C1.34 1.34 0.68 0.68 0 0 Z " fill="#62BBD5" transform="translate(226,370)"/>
<path d="M0 0 C0 0.66 0 1.32 0 2 C-0.969375 2.474375 -1.93875 2.94875 -2.9375 3.4375 C-5.80477437 4.70193947 -5.80477437 4.70193947 -7 6 C-9.34987262 6.23527773 -11.70556039 6.41386417 -14.0625 6.5625 C-15.35285156 6.64628906 -16.64320313 6.73007812 -17.97265625 6.81640625 C-18.97167969 6.87699219 -19.97070312 6.93757813 -21 7 C-17.58743254 5.1256095 -14.10074641 4.04344956 -10.375 2.9375 C-0.50943396 0 -0.50943396 0 0 0 Z " fill="#5CB7D3" transform="translate(298,366)"/>
<path d="M0 0 C0.66 0.33 1.32 0.66 2 1 C2 1.99 2 2.98 2 4 C2.99 3.67 3.98 3.34 5 3 C4.67 5.31 4.34 7.62 4 10 C3.01 10 2.02 10 1 10 C0.67 9.01 0.34 8.02 0 7 C-0.66 7.66 -1.32 8.32 -2 9 C-1.125 1.125 -1.125 1.125 0 0 Z " fill="#484B99" transform="translate(334,291)"/>
<path d="M0 0 C0 0.33 0 0.66 0 1 C-1.11375 1.309375 -2.2275 1.61875 -3.375 1.9375 C-6.7945155 2.82326483 -6.7945155 2.82326483 -9 4 C-10.05352843 6.30965848 -11.05719096 8.6429774 -12 11 C-12.66 11 -13.32 11 -14 11 C-14 13.31 -14 15.62 -14 18 C-14.33 18 -14.66 18 -15 18 C-15.6006222 11.27303135 -14.35565212 7.22678255 -10 2 C-6.3558226 -0.4294516 -4.28758728 -0.16179575 0 0 Z " fill="#73C1DB" transform="translate(212,244)"/>
<path d="M0 0 C0.99 0.66 1.98 1.32 3 2 C2.67 3.65 2.34 5.3 2 7 C1.01 7 0.02 7 -1 7 C-1.12375 7.804375 -1.2475 8.60875 -1.375 9.4375 C-1.58125 10.283125 -1.7875 11.12875 -2 12 C-2.99 12.495 -2.99 12.495 -4 13 C-3.40895235 8.15340923 -2.02055843 4.39251833 0 0 Z " fill="#313290" transform="translate(332,306)"/>
<path d="M0 0 C6.62773407 0.8622489 10.77210744 1.64466943 15 7 C11.64132288 6.24029922 8.47876342 5.12906745 5.25 3.9375 C4.26515625 3.57527344 3.2803125 3.21304688 2.265625 2.83984375 C1.14414062 2.42412109 1.14414062 2.42412109 0 2 C0 1.34 0 0.68 0 0 Z " fill="#3BB1DA" transform="translate(320,177)"/>
<path d="M0 0 C0.66 0.33 1.32 0.66 2 1 C0.625 3 0.625 3 -1 5 C-1.66 5 -2.32 5 -3 5 C-3 5.66 -3 6.32 -3 7 C-6.98188718 8.71767682 -10.96479403 10.41037341 -15 12 C-10.58990583 7.14889642 -5.41995647 3.651893 0 0 Z " fill="#7B7BA5" transform="translate(194,172)"/>
<path d="M0 0 C1.37432457 3.81756824 0.67975039 7.07255329 0 11 C-0.66 11 -1.32 11 -2 11 C-2.33 13.31 -2.66 15.62 -3 18 C-4.14229879 14.57310364 -3.90861076 12.38897782 -3.5625 8.8125 C-3.46066406 7.72582031 -3.35882813 6.63914062 -3.25390625 5.51953125 C-3.17011719 4.68808594 -3.08632812 3.85664063 -3 3 C-2.34 3 -1.68 3 -1 3 C-0.67 2.01 -0.34 1.02 0 0 Z " fill="#55538B" transform="translate(161,254)"/>
<path d="M0 0 C0.33 0 0.66 0 1 0 C1.67286212 2.41509441 2.33846012 4.83180356 3 7.25 C3.19078125 7.93191406 3.3815625 8.61382812 3.578125 9.31640625 C4.49957044 12.70600912 5 15.45778976 5 19 C4.34 19 3.68 19 3 19 C0.6969113 12.43345544 -0.33693273 6.96327638 0 0 Z " fill="#53B3D2" transform="translate(374,240)"/>
<path d="M0 0 C0.66 0.66 1.32 1.32 2 2 C-0.64 6.62 -3.28 11.24 -6 16 C-6.33 14.68 -6.66 13.36 -7 12 C-6.34 12 -5.68 12 -5 12 C-4.9175 11.319375 -4.835 10.63875 -4.75 9.9375 C-3.77667472 6.1253093 -2.04192545 3.35929671 0 0 Z " fill="#52B0D2" transform="translate(290,212)"/>
<path d="M0 0 C1 2 1 2 0.25 5.0625 C-0.1625 6.031875 -0.575 7.00125 -1 8 C-1.99 8.33 -2.98 8.66 -4 9 C-4.33 9.99 -4.66 10.98 -5 12 C-6.32 11.67 -7.64 11.34 -9 11 C-6.03 7.37 -3.06 3.74 0 0 Z " fill="#52B2D5" transform="translate(335,334)"/>
<path d="M0 0 C1.11074104 3.33222313 0.88927847 5.62074182 0 9 C-0.33 9.66 -0.66 10.32 -1 11 C-3.5625 11.625 -3.5625 11.625 -6 12 C-4.43358249 7.69235185 -2.31663844 3.93828536 0 0 Z " fill="#3BAFD5" transform="translate(239,208)"/>
<path d="M0 0 C3 1 3 1 4 2 C1.72501709 4.5017497 -0.59060888 6.02889373 -3.5625 7.625 C-4.34753906 8.05039063 -5.13257813 8.47578125 -5.94140625 8.9140625 C-7.28677769 9.62376508 -8.63949949 10.31974974 -10 11 C-9.67 9.68 -9.34 8.36 -9 7 C-8.360625 6.87625 -7.72125 6.7525 -7.0625 6.625 C-6.381875 6.41875 -5.70125 6.2125 -5 6 C-4.67 5.34 -4.34 4.68 -4 4 C-3.01 4 -2.02 4 -1 4 C-0.67 2.68 -0.34 1.36 0 0 Z " fill="#61659B" transform="translate(210,188)"/>
<path d="M0 0 C2 3 2 3 1.75 6.0625 C1 9 1 9 -1 11 C-3.68839385 11.26991906 -6.29141936 11.08737357 -9 11 C-9 10.67 -9 10.34 -9 10 C-6.69 10 -4.38 10 -2 10 C-2 7.36 -2 4.72 -2 2 C-1.34 2 -0.68 2 0 2 C0 1.34 0 0.68 0 0 Z " fill="#6C6C96" transform="translate(196,293)"/>
<path d="M0 0 C3.66579598 0.58496744 6.50499144 1.57826707 9.75 3.375 C10.52859375 3.79523438 11.3071875 4.21546875 12.109375 4.6484375 C14 6 14 6 15 9 C11.32305352 7.62859834 8.04681411 5.96304199 4.6875 3.9375 C3.80449219 3.41027344 2.92148438 2.88304687 2.01171875 2.33984375 C1.34785156 1.89769531 0.68398437 1.45554687 0 1 C0 0.67 0 0.34 0 0 Z " fill="#52B0CF" transform="translate(203,266)"/>
<path d="M0 0 C1.2065625 0.0309375 1.2065625 0.0309375 2.4375 0.0625 C2.4375 2.0425 2.4375 4.0225 2.4375 6.0625 C0.7875 6.0625 -0.8625 6.0625 -2.5625 6.0625 C-2.94468767 4.40635343 -3.27645102 2.73792976 -3.5625 1.0625 C-2.5625 0.0625 -2.5625 0.0625 0 0 Z " fill="#07ADF1" transform="translate(245.5625,108.9375)"/>
<path d="M0 0 C-1 3 -1 3 -2.92578125 4.203125 C-3.71339844 4.54859375 -4.50101562 4.8940625 -5.3125 5.25 C-6.09238281 5.60578125 -6.87226563 5.9615625 -7.67578125 6.328125 C-10.24607227 7.0711335 -11.51383429 6.88750996 -14 6 C-10.48812804 3.59185923 -8.27343092 2.63370592 -4 3 C-4 2.34 -4 1.68 -4 1 C-2 0 -2 0 0 0 Z " fill="#46ACCF" transform="translate(308,390)"/>
<path d="M0 0 C4.7539867 1.14751403 9.37892907 2.38262517 14 4 C14 4.33 14 4.66 14 5 C12.04196493 5.05389087 10.08351091 5.09274217 8.125 5.125 C7.03445312 5.14820313 5.94390625 5.17140625 4.8203125 5.1953125 C2 5 2 5 0 3 C0 2.01 0 1.02 0 0 Z " fill="#10A4DC" transform="translate(220,369)"/>
<path d="M0 0 C1.18239258 0.02707031 1.18239258 0.02707031 2.38867188 0.0546875 C4.32214261 0.10155952 6.25498285 0.1732959 8.1875 0.25 C8.1875 0.58 8.1875 0.91 8.1875 1.25 C7.23488281 1.28738281 6.28226563 1.32476562 5.30078125 1.36328125 C4.04652344 1.42902344 2.79226562 1.49476563 1.5 1.5625 C0.25863281 1.62050781 -0.98273438 1.67851562 -2.26171875 1.73828125 C-5.91152073 2.26427031 -7.74368364 3.33131796 -10.8125 5.25 C-11.8025 4.92 -12.7925 4.59 -13.8125 4.25 C-9.37162272 -0.27097326 -5.96390291 -0.25995218 0 0 Z " fill="#32A0C7" transform="translate(135.8125,330.75)"/>
<path d="M0 0 C2.05078125 0.03255208 4.1015625 0.06510417 6.15234375 0.09765625 C6.15234375 3.09765625 6.15234375 6.09765625 6.15234375 9.09765625 C5.16234375 9.09765625 4.17234375 9.09765625 3.15234375 9.09765625 C3.15234375 7.44765625 3.15234375 5.79765625 3.15234375 4.09765625 C2.53359375 3.78828125 1.91484375 3.47890625 1.27734375 3.16015625 C-0.09765625 2.47265625 -1.47265625 1.78515625 -2.84765625 1.09765625 C-1.84765625 0.09765625 -1.84765625 0.09765625 0 0 Z " fill="#535392" transform="translate(242.84765625,152.90234375)"/>
<path d="M0 0 C0.33 0 0.66 0 1 0 C1.38063221 2.3260857 1.71269945 4.66055264 2 7 C1 8 1 8 -1.50390625 8.09765625 C-3.01791016 8.08025391 -3.01791016 8.08025391 -4.5625 8.0625 C-5.57441406 8.05347656 -6.58632813 8.04445313 -7.62890625 8.03515625 C-8.41136719 8.02355469 -9.19382812 8.01195313 -10 8 C-10 7.67 -10 7.34 -10 7 C-7.69 7 -5.38 7 -3 7 C-2.690625 6.030625 -2.38125 5.06125 -2.0625 4.0625 C-1 1 -1 1 0 0 Z " fill="#4CB6DA" transform="translate(313,109)"/>
<path d="M0 0 C0.66 0.33 1.32 0.66 2 1 C2 2.65 2 4.3 2 6 C1.01 6 0.02 6 -1 6 C-1 6.66 -1 7.32 -1 8 C-2.65 8 -4.3 8 -6 8 C-6 7.34 -6 6.68 -6 6 C-4.68 6 -3.36 6 -2 6 C-2 4.35 -2 2.7 -2 1 C-1.34 0.67 -0.68 0.34 0 0 Z " fill="#1A9DCD" transform="translate(207,311)"/>
<path d="M0 0 C0.33 0 0.66 0 1 0 C1.144375 1.2375 1.28875 2.475 1.4375 3.75 C1.70122811 5.93626784 1.96766444 7.89652619 2.625 10 C3.25923149 13.38256797 2.50765563 16.6156291 2 20 C1.67 20 1.34 20 1 20 C-0.05619003 15.71702469 -0.11702092 11.57014354 -0.0625 7.1875 C-0.05798828 6.49462891 -0.05347656 5.80175781 -0.04882812 5.08789062 C-0.03713156 3.39188932 -0.01919924 1.69593297 0 0 Z " fill="#7675A4" transform="translate(135,281)"/>
<path d="M0 0 C0.99 0.33 1.98 0.66 3 1 C2.690625 1.721875 2.38125 2.44375 2.0625 3.1875 C1.04849171 5.87163959 0.22596136 8.13782271 0 11 C1.33378575 12.8354799 1.33378575 12.8354799 3 14 C0.03 13.505 0.03 13.505 -3 13 C-2.67 10.36 -2.34 7.72 -2 5 C-1.34 5 -0.68 5 0 5 C0 3.35 0 1.7 0 0 Z " fill="#72C0DB" transform="translate(261,261)"/>
<path d="M0 0 C0.33 1.32 0.66 2.64 1 4 C0.34 4 -0.32 4 -1 4 C-1 5.32 -1 6.64 -1 8 C-1.66 8 -2.32 8 -3 8 C-2.67 9.32 -2.34 10.64 -2 12 C-3.65 12.66 -5.3 13.32 -7 14 C-5.23570801 9.02790438 -2.6060834 4.56561939 0 0 Z " fill="#62B9D6" transform="translate(259,173)"/>
<path d="M0 0 C1.98 0 3.96 0 6 0 C6.33 0.66 6.66 1.32 7 2 C5.02 2 3.04 2 1 2 C0.67 2.66 0.34 3.32 0 4 C-0.66 4 -1.32 4 -2 4 C-2 4.99 -2 5.98 -2 7 C-3.32 7.33 -4.64 7.66 -6 8 C-5.34 6.35 -4.68 4.7 -4 3 C-3.01 3 -2.02 3 -1 3 C-0.67 2.01 -0.34 1.02 0 0 Z " fill="#2CAADB" transform="translate(320,101)"/>
<path d="M0 0 C9.37692308 1.23846154 9.37692308 1.23846154 11.6875 4.0625 C12.120625 4.701875 12.55375 5.34125 13 6 C7.71862571 5.48474397 4.42778844 3.74522883 0 1 C0 0.67 0 0.34 0 0 Z " fill="#5CB8D9" transform="translate(197,387)"/>
<path d="M0 0 C0.33 0.66 0.66 1.32 1 2 C0.34 2 -0.32 2 -1 2 C-1.061875 2.598125 -1.12375 3.19625 -1.1875 3.8125 C-2 6 -2 6 -4.3125 7.8125 C-7 9 -7 9 -9.3125 8.6875 C-9.869375 8.460625 -10.42625 8.23375 -11 8 C-5.25 4 -5.25 4 -3 4 C-2.67 3.01 -2.34 2.02 -2 1 C-1.34 0.67 -0.68 0.34 0 0 Z " fill="#65BBDA" transform="translate(317,353)"/>
<path d="M0 0 C0.66 0 1.32 0 2 0 C2.99 3.63 3.98 7.26 5 11 C2.525 10.01 2.525 10.01 0 9 C0 6.03 0 3.06 0 0 Z " fill="#32A4CE" transform="translate(198,255)"/>
<path d="M0 0 C2 3 2 3 2 5 C2.99 5.33 3.98 5.66 5 6 C5 8.64 5 11.28 5 14 C1.20937727 9.17557107 -0.28418033 6.25196725 0 0 Z " fill="#14A4DB" transform="translate(369,234)"/>
<path d="M0 0 C1.31223496 3.93670488 0.24296256 6.12488144 -1 10 C-2.32 10.33 -3.64 10.66 -5 11 C-4.44271087 7.65626525 -3.64826111 4.96687001 -2 2 C-1.34 2 -0.68 2 0 2 C0 1.34 0 0.68 0 0 Z " fill="#2A2C7C" transform="translate(151,220)"/>
<path d="M0 0 C0.33 0 0.66 0 1 0 C1 2.64 1 5.28 1 8 C0.01 8 -0.98 8 -2 8 C-2.33 8.99 -2.66 9.98 -3 11 C-3.66 11 -4.32 11 -5 11 C-3.55049545 7.2089881 -1.84827434 3.6125362 0 0 Z " fill="#57B5DA" transform="translate(245,197)"/>
<path d="M0 0 C3.3125 0.1875 3.3125 0.1875 7 1 C9.0625 3.3125 9.0625 3.3125 10 6 C9.1875 8.3125 9.1875 8.3125 8 10 C7.62875 8.865625 7.2575 7.73125 6.875 6.5625 C6.13362127 4.6185869 6.13362127 4.6185869 5 3 C1.91630113 1.94250443 1.91630113 1.94250443 -1 2 C-0.67 1.34 -0.34 0.68 0 0 Z " fill="#70B4CC" transform="translate(243,105)"/>
<path d="M0 0 C0.99 0 1.98 0 3 0 C2.67 1.32 2.34 2.64 2 4 C1.01 4 0.02 4 -1 4 C-0.34 7.63 0.32 11.26 1 15 C0.01 14.67 -0.98 14.34 -2 14 C-2.05410687 12.22950311 -2.09284119 10.45853151 -2.125 8.6875 C-2.14820313 7.70136719 -2.17140625 6.71523437 -2.1953125 5.69921875 C-2 3 -2 3 0 0 Z " fill="#2B2B72" transform="translate(182,99)"/>
<path d="M0 0 C-0.99 0.33 -1.98 0.66 -3 1 C-3.33 2.32 -3.66 3.64 -4 5 C-6.97 5 -9.94 5 -13 5 C-13 4.34 -13 3.68 -13 3 C-11.21189234 2.30329584 -9.41937948 1.61788811 -7.625 0.9375 C-6.62726563 0.55464844 -5.62953125 0.17179687 -4.6015625 -0.22265625 C-2 -1 -2 -1 0 0 Z " fill="#65649C" transform="translate(277,355)"/>
<path d="M0 0 C0.66 0.33 1.32 0.66 2 1 C2.05429959 2.74965358 2.09292823 4.49979787 2.125 6.25 C2.14820313 7.22453125 2.17140625 8.1990625 2.1953125 9.203125 C1.99660912 12.04855741 1.57242336 13.64136496 0 16 C-2.125 16.75 -2.125 16.75 -4 17 C-3.34 15.68 -2.68 14.36 -2 13 C-1.34 13 -0.68 13 0 13 C0 8.71 0 4.42 0 0 Z " fill="#10A8DD" transform="translate(235,336)"/>
<path d="M0 0 C0.33 0 0.66 0 1 0 C0.45438289 4.54680927 -0.18822569 8.7725266 -2 13 C-2.99 13.33 -3.98 13.66 -5 14 C-3.8545847 8.8896856 -2.54521255 4.62765919 0 0 Z " fill="#56B0CF" transform="translate(374,315)"/>
<path d="M0 0 C0.33 0 0.66 0 1 0 C1.3125 2.3125 1.3125 2.3125 1 5 C-1.3832946 6.81883009 -2.95818337 8 -6 8 C-5.25 5.5625 -5.25 5.5625 -4 3 C-1.875 2.1875 -1.875 2.1875 0 2 C0 1.34 0 0.68 0 0 Z " fill="#2CABD7" transform="translate(269,160)"/>
<path d="M0 0 C0.99 0.33 1.98 0.66 3 1 C2.34 2.98 1.68 4.96 1 7 C-0.32 7 -1.64 7 -3 7 C-2.25 2.25 -2.25 2.25 0 0 Z " fill="#2E2E89" transform="translate(298,346)"/>
<path d="M0 0 C0.33 1.32 0.66 2.64 1 4 C2.65 4 4.3 4 6 4 C6 5.65 6 7.3 6 9 C5.01 9.495 5.01 9.495 4 10 C2 8.375 2 8.375 0 6 C-0.25 2.75 -0.25 2.75 0 0 Z " fill="#0FA7E6" transform="translate(121,342)"/>
<path d="M0 0 C0.99 0.33 1.98 0.66 3 1 C2.67 2.65 2.34 4.3 2 6 C0.35 5.67 -1.3 5.34 -3 5 C-2.625 3.0625 -2.625 3.0625 -2 1 C-1.34 0.67 -0.68 0.34 0 0 Z " fill="#06AFEF" transform="translate(222,292)"/>
<path d="M0 0 C0 0.99 0 1.98 0 3 C0.3062434 4.33981486 0.63451555 5.67511887 1 7 C0.071875 7.12375 0.071875 7.12375 -0.875 7.25 C-3.18437567 7.81258459 -3.18437567 7.81258459 -4.25 10.0625 C-4.4975 10.701875 -4.745 11.34125 -5 12 C-6.125 8.25 -6.125 8.25 -5 6 C-4.34 6 -3.68 6 -3 6 C-2.690625 5.195625 -2.38125 4.39125 -2.0625 3.5625 C-1 1 -1 1 0 0 Z " fill="#292A77" transform="translate(158,208)"/>
<path d="M0 0 C-1.17744585 3.53233755 -1.95605641 3.86308075 -5.0625 5.6875 C-5.79597656 6.12449219 -6.52945312 6.56148438 -7.28515625 7.01171875 C-7.85105469 7.33785156 -8.41695313 7.66398437 -9 8 C-9.33 7.01 -9.66 6.02 -10 5 C-9.01 4.34 -8.02 3.68 -7 3 C-6.34 2.34 -5.68 1.68 -5 1 C-3 0 -3 0 0 0 Z " fill="#6E6FA3" transform="translate(311,344)"/>
<path d="M0 0 C0.928125 0.165 1.85625 0.33 2.8125 0.5 C5.95621353 1.07748388 5.95621353 1.07748388 9 1 C9 1.66 9 2.32 9 3 C10.32 3.66 11.64 4.32 13 5 C7.85611138 4.56407724 4.24514783 4.18386087 0 1 C0 0.67 0 0.34 0 0 Z " fill="#0CA9E5" transform="translate(245,288)"/>
<path d="M0 0 C1.1484375 1.703125 1.1484375 1.703125 2 4 C1.1015625 6.359375 1.1015625 6.359375 -0.375 8.75 C-0.85710937 9.54921875 -1.33921875 10.3484375 -1.8359375 11.171875 C-2.22007812 11.77515625 -2.60421875 12.3784375 -3 13 C-3.5534764 10.92446352 -4 9.15634036 -4 7 C-3.34 7 -2.68 7 -2 7 C-1.855625 6.401875 -1.71125 5.80375 -1.5625 5.1875 C-1.1127561 3.43849596 -0.57107659 1.71322977 0 0 Z " fill="#54B2CE" transform="translate(268,249)"/>
<path d="M0 0 C0.99 0 1.98 0 3 0 C2.54857225 1.77260631 2.08859477 3.5430368 1.625 5.3125 C1.24214844 6.79169922 1.24214844 6.79169922 0.8515625 8.30078125 C0 11 0 11 -2 14 C-2.21192221 8.80790596 -1.5912689 4.873261 0 0 Z " fill="#7D7BA3" transform="translate(164,240)"/>
<path d="M0 0 C2.97 0.495 2.97 0.495 6 1 C6.33 3.31 6.66 5.62 7 8 C4.35247996 5.42215154 2.05567935 3.08351902 0 0 Z " fill="#51B8DB" transform="translate(165,361)"/>
<path d="M0 0 C1.5625 1.125 1.5625 1.125 3 3 C2.6875 6.1875 2.6875 6.1875 2 9 C1.01 9 0.02 9 -1 9 C-1.125 2.25 -1.125 2.25 0 0 Z " fill="#605F8A" transform="translate(239,311)"/>
<path d="M0 0 C3.00617269 3.00617269 2.59585316 5.82381598 3 10 C2.01 9.67 1.02 9.34 0 9 C-1.125 2.25 -1.125 2.25 0 0 Z " fill="#2A2A76" transform="translate(158,294)"/>
<path d="M0 0 C1.32 0 2.64 0 4 0 C4 1.98 4 3.96 4 6 C2.68 6 1.36 6 0 6 C0 4.02 0 2.04 0 0 Z " fill="#04AEF0" transform="translate(201,311)"/>
<path d="M0 0 C2.96175123 0.61277612 4.38058783 1.25372522 7 3 C8.9896995 3.39013716 10.99019869 3.73202649 13 4 C11.5 5.1875 11.5 5.1875 9 6 C6.14855895 5.39095434 3.50695958 4.49729165 1 3 C0.67 2.01 0.34 1.02 0 0 Z " fill="#5FB8D1" transform="translate(246,290)"/>
<path d="M0 0 C0.66 0 1.32 0 2 0 C2 1.98 2 3.96 2 6 C1.01 6.33 0.02 6.66 -1 7 C-1.33 7.99 -1.66 8.98 -2 10 C-3 8 -3 8 -2.44140625 6.0546875 C-2.15136719 5.33539063 -1.86132812 4.61609375 -1.5625 3.875 C-1.27503906 3.15054688 -0.98757812 2.42609375 -0.69140625 1.6796875 C-0.46324219 1.12539062 -0.23507813 0.57109375 0 0 Z " fill="#67659C" transform="translate(144,229)"/>
<path d="M0 0 C-4.455 2.97 -4.455 2.97 -9 6 C-9 4.68 -9 3.36 -9 2 C-5.42360595 -0.88098409 -4.60497497 -1.15124374 0 0 Z " fill="#5A5A8F" transform="translate(200,200)"/>
<path d="M0 0 C1.21236328 0.04060547 1.21236328 0.04060547 2.44921875 0.08203125 C3.06410156 0.11683594 3.67898438 0.15164063 4.3125 0.1875 C1.27724514 2.21100324 0.11823798 2.50874018 -3.375 2.8125 C-4.18324219 2.88726562 -4.99148438 2.96203125 -5.82421875 3.0390625 C-6.43910156 3.08804687 -7.05398438 3.13703125 -7.6875 3.1875 C-5.26849268 0.20484049 -3.789448 -0.16475861 0 0 Z " fill="#4CB5D5" transform="translate(289.6875,396.8125)"/>
<path d="M0 0 C0.66 0 1.32 0 2 0 C0.83917375 3.48247874 0.09067524 3.88819244 -2.9375 5.75 C-3.64777344 6.19859375 -4.35804688 6.6471875 -5.08984375 7.109375 C-5.72019531 7.40328125 -6.35054688 7.6971875 -7 8 C-7.66 7.67 -8.32 7.34 -9 7 C-6.97958823 3.96938234 -6.24314437 3.27760233 -3 2 C-2.01 2 -1.02 2 0 2 C0 1.34 0 0.68 0 0 Z " fill="#6EBBD2" transform="translate(324,381)"/>
<path d="M0 0 C0.33 0 0.66 0 1 0 C1.49940808 6.11774896 0.24900602 9.02495953 -3 14 C-3.93065133 11.39417629 -4.14917407 10.35801776 -3.0625 7.75 C-2.5365625 6.88375 -2.5365625 6.88375 -2 6 C-1.34 6 -0.68 6 0 6 C0 4.02 0 2.04 0 0 Z " fill="#4DB1D2" transform="translate(364,334)"/>
<path d="M0 0 C0.33 1.32 0.66 2.64 1 4 C-0.98 4.99 -2.96 5.98 -5 7 C-5 5.35 -5 3.7 -5 2 C-4.01 1.67 -3.02 1.34 -2 1 C-1.34 1.33 -0.68 1.66 0 2 C0 1.34 0 0.68 0 0 Z " fill="#08A9E7" transform="translate(299,193)"/>
<path d="M0 0 C2.0625 0.4375 2.0625 0.4375 4 1 C3.67 2.32 3.34 3.64 3 5 C2.01 5 1.02 5 0 5 C-0.5625 3.0625 -0.5625 3.0625 -1 1 C-0.67 0.67 -0.34 0.34 0 0 Z " fill="#2D3196" transform="translate(243,156)"/>
<path d="M0 0 C0.99 0.99 1.98 1.98 3 3 C2.81103326 7.5352017 2.29518605 8.70481395 -1 12 C-0.67 8.04 -0.34 4.08 0 0 Z " fill="#7DC2D5" transform="translate(333,103)"/>
<path d="M0 0 C4.43458973 1.3937282 6.87378374 3.60582235 10 7 C7.97954558 6.39816251 5.97888961 5.72693904 4 5 C3.67 4.34 3.34 3.68 3 3 C2.01 2.67 1.02 2.34 0 2 C0 1.34 0 0.68 0 0 Z " fill="#49B0CD" transform="translate(204,359)"/>
<path d="M0 0 C0.66 0 1.32 0 2 0 C0.44499019 3.81684226 -2.03595495 6.19195732 -5 9 C-5.33 8.01 -5.66 7.02 -6 6 C-5.01 6 -4.02 6 -3 6 C-3 5.01 -3 4.02 -3 3 C-2.34 3 -1.68 3 -1 3 C-0.67 2.01 -0.34 1.02 0 0 Z " fill="#69C1DC" transform="translate(355,352)"/>
<path d="M0 0 C0.33 0.99 0.66 1.98 1 3 C-1 6 -1 6 -4.125 6.6875 C-5.07375 6.790625 -6.0225 6.89375 -7 7 C-4.66666667 4.66666667 -2.33333333 2.33333333 0 0 Z " fill="#57BBD7" transform="translate(325,346)"/>
<path d="M0 0 C0.99 0 1.98 0 3 0 C2.8125 2.375 2.8125 2.375 2 5 C-0.5625 6.3125 -0.5625 6.3125 -3 7 C-2.38722388 4.03824877 -1.74627478 2.61941217 0 0 Z " fill="#333190" transform="translate(325,320)"/>
<path d="M0 0 C0.33 0 0.66 0 1 0 C0.67 2.64 0.34 5.28 0 8 C-0.99 8.33 -1.98 8.66 -3 9 C-3.25873987 5.89512156 -3.23307327 4.37494396 -1.5625 1.6875 C-1.046875 1.130625 -0.53125 0.57375 0 0 Z " fill="#15A0D9" transform="translate(350,308)"/>
<path d="M0 0 C1 2 1 2 0.3125 4.5625 C-1 7 -1 7 -3.125 7.8125 C-3.74375 7.874375 -4.3625 7.93625 -5 8 C-3.8141763 4.62496331 -2.72426311 2.35277269 0 0 Z " fill="#3BA8CE" transform="translate(227,231)"/>
<path d="M0 0 C2.46800047 1.15173355 4.04783565 2.04783565 6 4 C6 4.99 6 5.98 6 7 C5.34 7 4.68 7 4 7 C4 6.34 4 5.68 4 5 C3.01 5 2.02 5 1 5 C0.67 3.35 0.34 1.7 0 0 Z " fill="#3FADCF" transform="translate(348,198)"/>
<path d="M0 0 C0.8353125 0.556875 0.8353125 0.556875 1.6875 1.125 C-1.125 2.6875 -1.125 2.6875 -4.3125 4.125 C-5.3025 3.795 -6.2925 3.465 -7.3125 3.125 C-7.3125 2.465 -7.3125 1.805 -7.3125 1.125 C-2.88173077 -1.09038462 -2.88173077 -1.09038462 0 0 Z " fill="#5F6096" transform="translate(221.3125,185.875)"/>
<path d="M0 0 C-4.95 1.485 -4.95 1.485 -10 3 C-9 0 -9 0 -6.6875 -1.3125 C-4 -2 -4 -2 0 0 Z " fill="#696A9F" transform="translate(287,360)"/>
<path d="M0 0 C0.66 0.99 1.32 1.98 2 3 C1.360625 3.598125 0.72125 4.19625 0.0625 4.8125 C-2.20310389 6.90810337 -2.20310389 6.90810337 -3 10 C-3.66 10 -4.32 10 -5 10 C-3.66511872 6.40608886 -2.03977277 3.24509304 0 0 Z " fill="#7C7CA9" transform="translate(326,313)"/>
<path d="M0 0 C0.66 0.33 1.32 0.66 2 1 C2.25 6.625 2.25 6.625 0 10 C-0.66 9.67 -1.32 9.34 -2 9 C-1.34 6.03 -0.68 3.06 0 0 Z " fill="#81C0D6" transform="translate(226,290)"/>
<path d="M0 0 C1.98 0 3.96 0 6 0 C6.33 0.99 6.66 1.98 7 3 C4.69 3 2.38 3 0 3 C0 2.01 0 1.02 0 0 Z " fill="#1B9ED4" transform="translate(206,245)"/>
<path d="M0 0 C1.32 0.33 2.64 0.66 4 1 C4.79953138 4.28696233 5.09658936 5.71023192 4 9 C0 2.25 0 2.25 0 0 Z " fill="#62B9DA" transform="translate(339,231)"/>
<path d="M0 0 C0.66 0.33 1.32 0.66 2 1 C1.67 1.99 1.34 2.98 1 4 C1.38932856 6.14255793 1.38932856 6.14255793 2 8 C0.68 8 -0.64 8 -2 8 C-1.125 1.125 -1.125 1.125 0 0 Z " fill="#1A9EC7" transform="translate(259,133)"/>
<path d="M0 0 C1.65 0 3.3 0 5 0 C2.702779 1.74271938 0.40133271 3.39911152 -2 5 C-4.1875 4.625 -4.1875 4.625 -6 4 C-3 2 -3 2 0 2 C0 1.34 0 0.68 0 0 Z " fill="#15A0D9" transform="translate(298,366)"/>
<path d="M0 0 C2.31 0 4.62 0 7 0 C6.34 1.32 5.68 2.64 5 4 C3.0625 3.6875 3.0625 3.6875 1 3 C0.67 2.01 0.34 1.02 0 0 Z " fill="#40AFD6" transform="translate(340,364)"/>
<path d="M0 0 C0.66 0.33 1.32 0.66 2 1 C0.875 3.5 0.875 3.5 -1 6 C-4.1875 6.3125 -4.1875 6.3125 -7 6 C-4.83312509 3.72478134 -2.54379491 1.84205838 0 0 Z " fill="#7A79B0" transform="translate(302,340)"/>
<path d="M0 0 C3 3.75 3 3.75 3 6 C4.65 5.67 6.3 5.34 8 5 C8 5.66 8 6.32 8 7 C5.69 7 3.38 7 1 7 C0.67 4.69 0.34 2.38 0 0 Z " fill="#262666" transform="translate(186,296)"/>
<path d="M0 0 C2.375 -0.125 2.375 -0.125 5 0 C5.66 0.66 6.32 1.32 7 2 C6.625 4.125 6.625 4.125 6 6 C5.67 5.01 5.34 4.02 5 3 C2.03 2.505 2.03 2.505 -1 2 C-0.67 1.34 -0.34 0.68 0 0 Z " fill="#15A6E3" transform="translate(219,290)"/>
<path d="M0 0 C0.33 1.65 0.66 3.3 1 5 C-1.9719385 3.87548273 -4.33440687 2.77706209 -7 1 C-4 0 -4 0 0 0 Z " fill="#5DBBD9" transform="translate(308,195)"/>
<path d="M0 0 C0.33 0 0.66 0 1 0 C0.67 3.3 0.34 6.6 0 10 C-0.66 10 -1.32 10 -2 10 C-1.54177532 6.53058454 -1.10868317 3.32604951 0 0 Z " fill="#58ACCC" transform="translate(121,336)"/>
<path d="M0 0 C0.99 0 1.98 0 3 0 C3.33 1.32 3.66 2.64 4 4 C2.02 4.99 2.02 4.99 0 6 C0 4.02 0 2.04 0 0 Z " fill="#10A6DF" transform="translate(122,336)"/>
<path d="M0 0 C2.0625 1.75 2.0625 1.75 4 4 C3.75 6.25 3.75 6.25 3 8 C1.5 6.8125 1.5 6.8125 0 5 C-0.1875 2.3125 -0.1875 2.3125 0 0 Z " fill="#0AAEE7" transform="translate(232,334)"/>
<path d="M0 0 C2.88575819 0.39803561 3.82189513 0.79009069 5.75 3.0625 C6.1625 3.701875 6.575 4.34125 7 5 C6.67 5.66 6.34 6.32 6 7 C3.95880212 5.38405168 1.95927063 3.7143618 0 2 C0 1.34 0 0.68 0 0 Z " fill="#6CB8CF" transform="translate(232,332)"/>
<path d="M0 0 C0.66 0.33 1.32 0.66 2 1 C1.6875 2.9375 1.6875 2.9375 1 5 C0.01 5.33 -0.98 5.66 -2 6 C-2 4.35 -2 2.7 -2 1 C-1.34 0.67 -0.68 0.34 0 0 Z " fill="#2D3099" transform="translate(235,313)"/>
<path d="M0 0 C2.76223278 2.76223278 2.57856291 5.20706617 3 9 C2.67 8.34 2.34 7.68 2 7 C1.34 7 0.68 7 0 7 C-0.93423645 3.98968256 -1.04449911 3.13349732 0 0 Z " fill="#73729F" transform="translate(162,304)"/>
<path d="M0 0 C0.33 0 0.66 0 1 0 C1 2.31 1 4.62 1 7 C0.01 7 -0.98 7 -2 7 C-2.125 4.625 -2.125 4.625 -2 2 C-1.34 1.34 -0.68 0.68 0 0 Z " fill="#24A8D8" transform="translate(258,266)"/>
<path d="M0 0 C1 4 1 4 1 4 Z M-4 5 C-3.01 5.33 -2.02 5.66 -1 6 C-1.66 7.32 -2.32 8.64 -3 10 C-3.66 9.67 -4.32 9.34 -5 9 C-4.67 7.68 -4.34 6.36 -4 5 Z " fill="#0DA4DB" transform="translate(227,233)"/>
<path d="M0 0 C1.98 0.66 3.96 1.32 6 2 C5.67 2.66 5.34 3.32 5 4 C3.35 4 1.7 4 0 4 C0 2.68 0 1.36 0 0 Z " fill="#23B3DF" transform="translate(198,355)"/>
<path d="M0 0 C3.875 1.875 3.875 1.875 5 3 C5.04080783 4.99958364 5.04254356 7.00045254 5 9 C4.67 9 4.34 9 4 9 C3.67 7.35 3.34 5.7 3 4 C2.01 4.495 2.01 4.495 1 5 C0.67 3.35 0.34 1.7 0 0 Z " fill="#72C1D8" transform="translate(205,308)"/>
<path d="M0 0 C0.33 0 0.66 0 1 0 C1 1.98 1 3.96 1 6 C1.66 6.33 2.32 6.66 3 7 C1.0625 7.5625 1.0625 7.5625 -1 8 C-2 7 -2 7 -2.1875 4.5625 C-2 2 -2 2 0 0 Z " fill="#4D4789" transform="translate(141,307)"/>
<path d="M0 0 C0.33 0.99 0.66 1.98 1 3 C-0.65 4.32 -2.3 5.64 -4 7 C-4 5.02 -4 3.04 -4 1 C-2.68 1.33 -1.36 1.66 0 2 C0 1.34 0 0.68 0 0 Z " fill="#0DA8E7" transform="translate(262,285)"/>
<path d="M0 0 C1.98 0.99 1.98 0.99 4 2 C4 3.98 4 5.96 4 8 C3.67 7.01 3.34 6.02 3 5 C2.34 5 1.68 5 1 5 C0.67 3.35 0.34 1.7 0 0 Z " fill="#169BD3" transform="translate(343,235)"/>
<path d="M0 0 C1.70884005 1.62339805 3.37446717 3.29319053 5 5 C5 5.66 5 6.32 5 7 C3.0625 6.3125 3.0625 6.3125 1 5 C0.25 2.375 0.25 2.375 0 0 Z " fill="#45A6C9" transform="translate(336,224)"/>
<path d="M0 0 C0.99 0 1.98 0 3 0 C3 1.32 3 2.64 3 4 C1.68 4.33 0.36 4.66 -1 5 C-0.67 3.35 -0.34 1.7 0 0 Z " fill="#11A4DE" transform="translate(234,219)"/>
<path d="M0 0 C3.68754757 0.49831724 5.60490662 1.10067643 8 4 C5.69 3.67 3.38 3.34 1 3 C0.67 2.01 0.34 1.02 0 0 Z " fill="#4EB3D2" transform="translate(319,174)"/>
<path d="M0 0 C0.33 0 0.66 0 1 0 C1.12375 0.94875 1.2475 1.8975 1.375 2.875 C1.71687177 6.08667191 1.71687177 6.08667191 4 8 C4 8.66 4 9.32 4 10 C2.68 9.67 1.36 9.34 0 9 C0 6.03 0 3.06 0 0 Z " fill="#6F6C99" transform="translate(239,155)"/>
<path d="M0 0 C0.66 0.33 1.32 0.66 2 1 C1.01 2.98 0.02 4.96 -1 7 C-1.66 6.67 -2.32 6.34 -3 6 C-1.125 1.125 -1.125 1.125 0 0 Z " fill="#5DAFCE" transform="translate(324,154)"/>
<path d="M0 0 C0.66 0.99 1.32 1.98 2 3 C1.125 5.6875 1.125 5.6875 0 8 C-0.99 7.67 -1.98 7.34 -3 7 C-1.125 2.25 -1.125 2.25 0 0 Z " fill="#54B6D6" transform="translate(282,133)"/>
<path d="M0 0 C-0.99 0 -1.98 0 -3 0 C-3 0.66 -3 1.32 -3 2 C-4.375 3.625 -4.375 3.625 -6 5 C-6.66 5 -7.32 5 -8 5 C-6.19780722 -0.02039417 -5.34443412 -1.60333024 0 0 Z " fill="#5CABCA" transform="translate(325,99)"/>
</svg>
